<?xml version="1.0" encoding="utf-8"?>
<!-- Generator: Adobe Illustrator 27.5.0, SVG Export Plug-In . SVG Version: 6.00 Build 0)  -->
<svg version="1.1" xmlns="http://www.w3.org/2000/svg" xmlns:xlink="http://www.w3.org/1999/xlink" x="0px" y="0px"
	 viewBox="0 0 500 500" style="enable-background:new 0 0 500 500;" xml:space="preserve">
<g id="Background_Complete">
	<rect y="382.398" style="fill:#EBEBEB;" width="500" height="0.25"/>
	<g>
		<path style="fill:#EBEBEB;" d="M238.401,337.8H45.302c-3.147,0-5.708-2.561-5.708-5.708V60.66c0-3.147,2.561-5.708,5.708-5.708
			h193.099c3.146,0,5.707,2.561,5.707,5.708v271.432C244.108,335.239,241.547,337.8,238.401,337.8z M45.302,55.203
			c-3.01,0-5.458,2.448-5.458,5.458v271.432c0,3.01,2.448,5.458,5.458,5.458h193.099c3.009,0,5.457-2.448,5.457-5.458V60.66
			c0-3.009-2.448-5.458-5.457-5.458H45.302z"/>
		<g>
			<path style="fill:#EBEBEB;" d="M454.698,337.8H261.599c-3.146,0-5.707-2.561-5.707-5.708V60.66c0-3.147,2.561-5.708,5.707-5.708
				h193.099c3.148,0,5.708,2.561,5.708,5.708v271.432C460.406,335.239,457.845,337.8,454.698,337.8z M261.599,55.203
				c-3.009,0-5.457,2.448-5.457,5.458v271.432c0,3.01,2.448,5.458,5.457,5.458h193.099c3.01,0,5.458-2.448,5.458-5.458V60.66
				c0-3.009-2.448-5.458-5.458-5.458H261.599z"/>
		</g>
	</g>
	<rect y="382.398" style="fill:#EBEBEB;" width="500" height="0.25"/>
	<rect x="416.779" y="398.494" style="fill:#EBEBEB;" width="33.122" height="0.25"/>
	<rect x="322.527" y="401.208" style="fill:#EBEBEB;" width="8.693" height="0.25"/>
	<rect x="396.586" y="389.208" style="fill:#EBEBEB;" width="19.192" height="0.25"/>
	<rect x="52.459" y="390.888" style="fill:#EBEBEB;" width="43.193" height="0.25"/>
	<rect x="131.471" y="395.111" style="fill:#EBEBEB;" width="93.676" height="0.25"/>
	<g style="display:none;">
		<g style="display:inline;">
			<path style="fill:#F5F5F5;" d="M45.553,383.484c-2.61-4.394-3.425-10.705-2.223-15.673c1.203-4.968,5.384-8.335,9.715-11.049
				c-3.256-17.987,0.435-37.142,10.143-52.631c9.707-15.489,25.726-25.537,43.333-30.449c-1.534-13.17,2.774-26.914,11.551-36.852
				c8.777-9.938,22.767-16.299,36.025-16.404c0.968-9.44,6.377-18.329,14.316-23.527c7.939-5.199,18.044-6.872,27.084-3.985
				c1.361-6.71,6.028-12.667,12.218-15.592c6.19-2.926,13.755-2.751,19.804,0.458c9.259-2.585,19.438,2.277,23.647,10.92
				c4.209,8.643,1.382,20.105-6.362,25.8c8.743,12.801,8.364,32.84-0.932,45.245c5.113,1.354,7.333,8.558,8.096,13.792
				c2.207,15.133-0.48,30.94-7.561,44.495c9.439-0.445,18.565,6.467,24.19,14.06c5.625,7.593,7.176,18.031,4.001,26.931
				c5.472-0.334,10.133,3.913,12.827,8.688c2.694,4.774,3.512,10.346,4.283,15.773H45.553z"/>
		</g>
		<g style="display:inline;">
			<g>
				<g>
					<path style="fill:#E0E0E0;" d="M221.261,158.591l70.72-3.309c1.09-0.051,1.817,1.11,1.295,2.068l-33.878,62.165
						c-0.512,0.94-1.848,0.98-2.416,0.073l-36.842-58.856C219.572,159.825,220.191,158.641,221.261,158.591z"/>
				</g>
				<g>
					<g>
						<g>
							<path style="fill:#E0E0E0;" d="M223.201,185.456l4.971-5.102l-3.225-5.152l-6.761,2.243
								C218.71,180.562,220.423,183.479,223.201,185.456z"/>
							<path style="fill:#FFFFFF;" d="M221.666,176.292c-0.429,0.142-0.861,0.286-1.27,0.421c0.71,2.68,2.209,5.164,4.431,7.076
								l0.934-0.958C223.949,180.904,222.577,178.678,221.666,176.292z"/>
						</g>
						<g>
							<path style="fill:#EBEBEB;" d="M230.38,182.96c-3.772-2.686-6.099-6.648-6.811-10.88l43.569-27.273
								c5.129-3.211,11.074-4.038,16.539-2.781c-1.257,5.465-4.599,10.451-9.728,13.661L230.38,182.96z"/>
							<g>
								<path style="fill:#E0E0E0;" d="M267.139,144.807c0,0-0.689,0.431-1.884,1.179c1.183,4.091,3.479,7.882,6.809,10.881
									c1.196-0.749,1.886-1.181,1.886-1.181c5.129-3.211,8.471-8.196,9.728-13.661
									C278.212,140.768,272.268,141.596,267.139,144.807z"/>
							</g>
						</g>
					</g>
					<g>
						<g>
							<path style="fill:#E0E0E0;" d="M241.364,212.489l4.971-5.102l-3.225-5.152l-6.761,2.243
								C236.874,207.595,238.587,210.511,241.364,212.489z"/>
							<path style="fill:#FFFFFF;" d="M239.829,203.324c-0.429,0.142-0.861,0.286-1.27,0.421c0.71,2.68,2.209,5.164,4.431,7.076
								l0.934-0.958C242.112,207.936,240.74,205.711,239.829,203.324z"/>
						</g>
						<g>
							<path style="fill:#EBEBEB;" d="M248.543,209.992c-3.772-2.686-6.099-6.648-6.811-10.88l43.569-27.273
								c5.129-3.211,11.074-4.038,16.539-2.781c-1.257,5.465-4.599,10.451-9.728,13.661L248.543,209.992z"/>
							<g>
								<path style="fill:#E0E0E0;" d="M285.302,171.839c0,0-0.689,0.432-1.884,1.179c1.183,4.091,3.479,7.882,6.809,10.881
									c1.196-0.749,1.886-1.181,1.886-1.181c5.129-3.211,8.471-8.196,9.728-13.661
									C296.376,167.801,290.431,168.629,285.302,171.839z"/>
							</g>
						</g>
					</g>
				</g>
				<g>
					<g>
						<path style="fill:#E0E0E0;" d="M231.112,203.127l8.026-8.236l-5.206-8.317l-10.915,3.62
							C223.863,195.226,226.628,199.934,231.112,203.127z"/>
						<path style="fill:#FFFFFF;" d="M228.633,188.332c-0.692,0.23-1.389,0.461-2.051,0.68c1.146,4.326,3.566,8.336,7.153,11.423
							l1.507-1.547C232.32,195.777,230.104,192.184,228.633,188.332z"/>
					</g>
					<g>
						<path style="fill:#E0E0E0;" d="M242.702,199.096c-6.09-4.337-9.846-10.732-10.995-17.565l70.338-44.029
							c8.28-5.183,17.877-6.519,26.7-4.49c-2.03,8.823-7.425,16.871-15.705,22.055L242.702,199.096z"/>
						<g>
							<path style="fill:#F0F0F0;" d="M302.044,137.502c0,0-59.139,37.019-66.305,41.505c1.549,6.719,5.277,12.96,10.993,17.566
								c7.164-4.484,66.307-41.506,66.307-41.506c8.28-5.183,13.676-13.232,15.705-22.055
								C319.921,130.983,310.324,132.319,302.044,137.502z"/>
						</g>
						<g>
							<path style="fill:#E0E0E0;" d="M302.044,137.502c0,0-1.113,0.697-3.042,1.904c1.909,6.604,5.616,12.725,10.992,17.567
								c1.931-1.209,3.045-1.906,3.045-1.906c8.28-5.183,13.676-13.232,15.705-22.055
								C319.921,130.983,310.324,132.319,302.044,137.502z"/>
						</g>
					</g>
					<g>
						<path style="fill:#FFFFFF;" d="M296.673,160.208c-2.825,1.768-6.549,0.912-8.317-1.913c-1.768-2.825-0.912-6.549,1.913-8.317
							c2.825-1.768,6.549-0.912,8.317,1.913C300.354,154.716,299.498,158.439,296.673,160.208z"/>
						<g>
							<path style="fill:#E0E0E0;" d="M288.355,158.295c-1.687-2.695-0.981-6.203,1.539-8.056c-0.134,0.07-0.268,0.141-0.398,0.222
								c-2.825,1.768-3.682,5.492-1.913,8.317c1.768,2.825,5.492,3.682,8.317,1.913c0.13-0.082,0.252-0.171,0.374-0.261
								C293.506,161.887,290.042,160.989,288.355,158.295z"/>
						</g>
						<path style="fill:#FAFAFA;" d="M295.735,158.71c-1.998,1.25-4.631,0.645-5.881-1.353c-1.25-1.998-0.645-4.631,1.353-5.881
							s4.631-0.645,5.881,1.353C298.338,154.826,297.732,157.459,295.735,158.71z"/>
						<g>
							<g>
								<path style="fill:#FFFFFF;" d="M289.754,157.155l7.894-2.88c-0.091-0.465-0.259-0.921-0.513-1.351l-7.871,2.872
									C289.341,156.264,289.513,156.72,289.754,157.155z"/>
								<path style="fill:#FFFFFF;" d="M290.786,158.387l6.865-2.505c0.05-0.262,0.075-0.528,0.075-0.796l-7.509,2.74
									C290.392,158.033,290.581,158.219,290.786,158.387z"/>
							</g>
						</g>
					</g>
				</g>
			</g>
		</g>
	</g>
	<g>
		<g>
			<g>
				
					<ellipse transform="matrix(0.7175 -0.6966 0.6966 0.7175 -14.7727 139.7938)" style="fill:#E0E0E0;" cx="164.95" cy="88.109" rx="15.454" ry="15.454"/>
			</g>
			
				<ellipse transform="matrix(0.9039 -0.4277 0.4277 0.9039 -21.9351 79.8232)" style="fill:#F0F0F0;" cx="166.697" cy="88.733" rx="15.454" ry="15.454"/>
			<path style="fill:#E6E6E6;" d="M177.586,92.627c-2.151,6.014-8.77,9.146-14.784,6.995c-6.014-2.151-9.146-8.77-6.995-14.784
				c2.151-6.014,8.77-9.146,14.784-6.995C176.605,79.994,179.737,86.613,177.586,92.627z"/>
			<path style="fill:#FFFFFF;" d="M172.32,91.703c-0.212-0.665-0.63-1.235-1.255-1.711c0.613-0.085,1.148-0.311,1.604-0.678
				c0.455-0.367,0.79-0.85,1.004-1.448c0.353-0.986,0.23-1.911-0.368-2.773c-0.446-0.642-1.142-1.192-2.087-1.654l0.318-0.89
				l-1.376-0.492l-0.297,0.831l-1.376-0.492l0.297-0.831l-1.376-0.492l-0.297,0.831l-2.982-1.066l-4.409,12.328l2.982,1.066
				l-0.313,0.875l1.376,0.492l0.313-0.875l1.376,0.492l-0.313,0.875l1.376,0.492l0.325-0.91c1.272,0.366,2.359,0.45,3.237,0.214
				c1.048-0.281,1.763-0.961,2.15-2.041C172.502,93.083,172.533,92.369,172.32,91.703z M166.196,84.001l2.836,1.014
				c0.704,0.252,1.195,0.563,1.472,0.934c0.278,0.371,0.331,0.797,0.159,1.279c-0.172,0.482-0.484,0.78-0.936,0.896
				c-0.452,0.117-1.03,0.049-1.734-0.203l-2.836-1.014L166.196,84.001z M168.484,93.459c-0.47,0.11-1.08,0.031-1.832-0.238
				l-3.328-1.19l1.089-3.046l3.328,1.19c1.515,0.542,2.09,1.323,1.725,2.344C169.281,93.037,168.953,93.35,168.484,93.459z"/>
		</g>
		<g>
			<g>
				<path style="fill:#E6E6E6;" d="M242.526,96.09v4.622c2.98,0.238,5.693,1.419,7.841,3.247l3.267-3.267
					C250.64,98.038,246.778,96.344,242.526,96.09z"/>
			</g>
			<g>
				<path style="fill:#F5F5F5;" d="M240.296,128.273c-6.747-0.539-12.126-5.918-12.665-12.665h-4.622
					c0.555,9.295,7.992,16.732,17.287,17.287V128.273z"/>
			</g>
			<g>
				<path style="fill:#E0E0E0;" d="M227.63,113.377c0.539-6.747,5.919-12.126,12.666-12.665V96.09
					c-9.294,0.555-16.731,7.993-17.287,17.287H227.63z"/>
			</g>
			<path style="fill:#EBEBEB;" d="M255.211,102.269l-3.267,3.267c2.054,2.413,3.296,5.539,3.296,8.956
				c0,7.262-5.598,13.212-12.714,13.78v4.622c9.664-0.577,17.324-8.594,17.324-18.402
				C259.85,109.802,258.096,105.523,255.211,102.269z"/>
		</g>
		<g>
			<g>
				<g>
					<polygon style="fill:#E6E6E6;" points="85.195,150.825 85.623,161.088 110.24,154.462 122.427,139.299 136.138,134.15 
						137.496,137.78 147.901,126.587 132.237,121.559 133.793,125.672 120.11,130.612 108.354,146.115 					"/>
				</g>
			</g>
		</g>
		<g>
			<g>
				<g>
					<path style="fill:#E6E6E6;" d="M392.056,161.283c4.402,7.834,1.62,17.754-6.214,22.157c-7.834,4.402-17.754,1.62-22.156-6.214
						c-4.402-7.834-1.62-17.754,6.214-22.156C377.733,150.667,387.653,153.449,392.056,161.283z"/>
				</g>
				
					<ellipse transform="matrix(0.7312 -0.6822 0.6822 0.7312 -12.7731 304.1819)" style="fill:#F0F0F0;" cx="379.573" cy="168.298" rx="16.272" ry="16.272"/>
				<path style="fill:#E6E6E6;" d="M390.188,162.333c3.295,5.863,1.213,13.286-4.65,16.581c-5.863,3.294-13.286,1.213-16.581-4.65
					c-3.294-5.863-1.212-13.286,4.65-16.581C379.47,154.388,386.893,156.47,390.188,162.333z"/>
			</g>
			<g>
				<path style="fill:#FFFFFF;" d="M385.504,167.937c1.729,2.116,0.999,4.592-1.767,6.47l1.043,1.969l-1.764,0.992l-1.043-1.969
					c-1.793,0.799-3.665,1.155-5.059,1.056l-0.431-2.637c1.443,0.095,2.95-0.172,4.259-0.744l-1.597-3.026
					c-2.005,0.476-4.286,0.9-5.86-1.026c-1.729-2.116-0.975-4.628,1.868-6.506l-1.042-1.968l1.765-0.992l1.056,1.985
					c1.343-0.593,2.751-0.919,3.988-0.918l0.536,2.577c-1.136-0.034-2.275,0.21-3.306,0.65l1.671,3.147
					C381.794,166.516,384.009,166.107,385.504,167.937z M377.779,167.495l-1.361-2.578c-0.862,0.74-1.024,1.55-0.547,2.165
					C376.274,167.575,376.948,167.613,377.779,167.495z M382.983,169.957c-0.377-0.461-1.018-0.52-1.804-0.38l1.305,2.447
					C383.294,171.314,383.478,170.562,382.983,169.957z"/>
			</g>
		</g>
		<g>
			<g>
				<g>
					<polygon style="fill:#F5F5F5;" points="323.578,71.623 308.242,97.079 323.578,106.349 					"/>
					<polygon style="fill:#EBEBEB;" points="308.242,97.079 323.578,90.201 323.578,106.349 					"/>
				</g>
				<g>
					<polygon style="fill:#EBEBEB;" points="323.578,71.623 338.915,97.079 323.578,106.349 					"/>
					<polygon style="fill:#E0E0E0;" points="338.915,97.079 323.578,90.201 323.578,106.349 					"/>
				</g>
			</g>
			<polygon style="fill:#F5F5F5;" points="308.186,101.722 323.634,123.477 323.578,110.917 			"/>
			<polygon style="fill:#EBEBEB;" points="338.971,101.722 323.522,123.477 323.578,110.917 			"/>
		</g>
	</g>
</g>
<g id="Background_Simple" style="display:none;">
	<g style="display:inline;">
		<g>
			<path style="fill:#407BFF;" d="M328.902,77.695c20.771,7.754,37.387,25.845,43.35,47.199c5.963,21.354,1.123,45.437-12.626,62.83
				c-11.03,13.953-26.832,23.197-42.496,31.62c-15.665,8.423-4.604-0.468-17.273,12.015c-12.669,12.483-21.447,30.426-18.177,47.908
				c3.985,21.301,23.743,35.467,42.175,46.864c18.432,11.396,38.655,24.195,44.773,44.984c2.287,7.773,1.399,17.857-5.751,21.669
				c-5.92,3.157-13.138,0.514-19.296-2.149c-41.735-18.047-83.471-36.094-125.206-54.141c-25.452-11.006-51.875-22.72-69.656-43.999
				c-21.419-25.632-26.793-61.742-21.691-94.753c2.824-18.273,8.82-36.536,20.641-50.754c15.924-19.153,40.206-28.724,62.55-39.731
				c24.353-11.996,22.892-4.51,45.41-19.673C291.708,63.29,328.902,77.695,328.902,77.695z"/>
			<g style="opacity:0.9;">
				<path style="fill:#FFFFFF;" d="M328.902,77.695c20.771,7.754,37.387,25.845,43.35,47.199
					c5.963,21.354,1.123,45.437-12.626,62.83c-11.03,13.953-26.832,23.197-42.496,31.62c-15.665,8.423-4.604-0.468-17.273,12.015
					c-12.669,12.483-21.447,30.426-18.177,47.908c3.985,21.301,23.743,35.467,42.175,46.864
					c18.432,11.396,38.655,24.195,44.773,44.984c2.287,7.773,1.399,17.857-5.751,21.669c-5.92,3.157-13.138,0.514-19.296-2.149
					c-41.735-18.047-83.471-36.094-125.206-54.141c-25.452-11.006-51.875-22.72-69.656-43.999
					c-21.419-25.632-26.793-61.742-21.691-94.753c2.824-18.273,8.82-36.536,20.641-50.754c15.924-19.153,40.206-28.724,62.55-39.731
					c24.353-11.996,22.892-4.51,45.41-19.673C291.708,63.29,328.902,77.695,328.902,77.695z"/>
			</g>
		</g>
	</g>
</g>
<g id="Shadow">
	<rect x="104.556" y="390.888" style="fill:#EBEBEB;" width="6.333" height="0.25"/>
	<ellipse id="_x3C_Path_x3E__359_" style="fill:#F5F5F5;" cx="252.139" cy="415.693" rx="193.889" ry="11.323"/>
</g>
<g id="Start_Up">
	<g>
		<g>
			<g>
				<path style="fill:#407BFF;" d="M277.558,414.88H73.988c-4.13-2.9-7.13-7.36-8.27-12.28c-1.15-4.91-0.41-10.24,2.02-14.66
					c0.97-1.76,2.31-3.45,4.01-4.46c-2.27-3.94-2.97-9.58-1.92-14.03c1.06-4.47,4.76-7.5,8.58-9.94
					c-2.87-16.19,0.39-33.44,8.96-47.38c8.58-13.94,22.73-22.99,38.29-27.41c-1.36-11.86,2.45-24.23,10.2-33.18
					c7.76-8.94,20.12-14.67,31.83-14.76c0.86-8.5,5.64-16.5,12.65-21.18c7.02-4.68,15.94-6.19,23.93-3.59
					c1.2-6.04,5.33-11.4,10.8-14.04c5.46-2.63,12.15-2.47,17.49,0.41c8.18-2.32,17.18,2.05,20.89,9.83
					c3.72,7.79,1.23,18.1-5.62,23.23c7.73,11.52,7.39,29.56-0.82,40.73c4.52,1.22,6.48,7.7,7.15,12.42
					c1.95,13.62-0.42,27.85-6.68,40.05c8.34-0.4,16.41,5.82,21.38,12.66c4.97,6.83,6.34,16.23,3.53,24.24
					c4.84-0.3,8.95,3.53,11.33,7.82c1.92,3.47,2.77,7.42,3.38,11.37c0.19,0.39,0.33,0.8,0.43,1.24
					C290.118,393.38,286.128,406.91,277.558,414.88z"/>
			</g>
		</g>
		<g style="opacity:0.6;">
			<g>
				<path style="fill:#FFFFFF;" d="M277.558,414.88H73.988c-4.13-2.9-7.13-7.36-8.27-12.28c-1.15-4.91-0.41-10.24,2.02-14.66
					c0.97-1.76,2.31-3.45,4.01-4.46c-2.27-3.94-2.97-9.58-1.92-14.03c1.06-4.47,4.76-7.5,8.58-9.94
					c-2.87-16.19,0.39-33.44,8.96-47.38c8.58-13.94,22.73-22.99,38.29-27.41c-1.36-11.86,2.45-24.23,10.2-33.18
					c7.76-8.94,20.12-14.67,31.83-14.76c0.86-8.5,5.64-16.5,12.65-21.18c7.02-4.68,15.94-6.19,23.93-3.59
					c1.2-6.04,5.33-11.4,10.8-14.04c5.46-2.63,12.15-2.47,17.49,0.41c8.18-2.32,17.18,2.05,20.89,9.83
					c3.72,7.79,1.23,18.1-5.62,23.23c7.73,11.52,7.39,29.56-0.82,40.73c4.52,1.22,6.48,7.7,7.15,12.42
					c1.95,13.62-0.42,27.85-6.68,40.05c8.34-0.4,16.41,5.82,21.38,12.66c4.97,6.83,6.34,16.23,3.53,24.24
					c4.84-0.3,8.95,3.53,11.33,7.82c1.92,3.47,2.77,7.42,3.38,11.37c0.19,0.39,0.33,0.8,0.43,1.24
					C290.118,393.38,286.128,406.91,277.558,414.88z"/>
			</g>
		</g>
		<g>
			<g>
				<g>
					<path style="fill:#407BFF;" d="M228.716,181.624l62.91-10.21c0.97-0.158,1.739,0.806,1.37,1.717l-23.926,59.072
						c-0.362,0.893-1.552,1.066-2.153,0.313l-38.984-48.861C227.331,182.9,227.764,181.778,228.716,181.624z"/>
					<path style="opacity:0.2;fill:#FFFFFF;" d="M228.716,181.624l62.91-10.21c0.97-0.158,1.739,0.806,1.37,1.717l-23.926,59.072
						c-0.362,0.893-1.552,1.066-2.153,0.313l-38.984-48.861C227.331,182.9,227.764,181.778,228.716,181.624z"/>
				</g>
				<g>
					<g>
						<g>
							<path style="fill:#263238;" d="M233.205,205.452l3.923-5.072l-3.412-4.277l-5.817,2.699
								C228.687,201.535,230.518,203.968,233.205,205.452z"/>
							<path style="opacity:0.2;fill:#FFFFFF;" d="M233.716,196.103c0,0-0.874,0.405-1.362,0.632
								c0.782,1.896,2.089,3.588,3.855,4.833l0.919-1.189L233.716,196.103z"/>
							<path style="opacity:0.4;fill:#FFFFFF;" d="M230.893,197.413c-0.369,0.171-0.74,0.344-1.093,0.507
								c0.91,2.324,2.505,4.392,4.688,5.874l0.737-0.953C233.408,201.303,231.952,199.454,230.893,197.413z"/>
						</g>
						<g>
							<path style="fill:#407BFF;" d="M239.37,202.483c-3.649-2.016-6.136-5.32-7.207-9.033l36.171-28.859
								c4.258-3.397,9.49-4.747,14.507-4.183c-0.564,5.017-3.042,9.818-7.3,13.215L239.37,202.483z"/>
							<g>
								<path style="fill:#407BFF;" d="M268.334,164.592c0,0-30.412,24.264-34.097,27.204c1.285,3.624,3.746,6.844,7.206,9.033
									c3.684-2.939,34.098-27.205,34.098-27.205c4.258-3.397,6.736-8.199,7.3-13.215
									C277.824,159.844,272.592,161.194,268.334,164.592z"/>
								<path style="opacity:0.5;fill:#FFFFFF;" d="M268.334,164.592c0,0-30.412,24.264-34.097,27.204
									c1.285,3.624,3.746,6.844,7.206,9.033c3.684-2.939,34.098-27.205,34.098-27.205c4.258-3.397,6.736-8.199,7.3-13.215
									C277.824,159.844,272.592,161.194,268.334,164.592z"/>
							</g>
							<g>
								<path style="fill:#407BFF;" d="M268.334,164.592c0,0-0.572,0.457-1.564,1.248c1.477,3.537,3.92,6.693,7.205,9.034
									c0.993-0.792,1.566-1.249,1.566-1.249c4.258-3.397,6.736-8.199,7.3-13.215C277.824,159.844,272.592,161.194,268.334,164.592
									z"/>
								<path style="opacity:0.2;fill:#FFFFFF;" d="M268.334,164.592c0,0-0.572,0.457-1.564,1.248
									c1.477,3.537,3.92,6.693,7.205,9.034c0.993-0.792,1.566-1.249,1.566-1.249c4.258-3.397,6.736-8.199,7.3-13.215
									C277.824,159.844,272.592,161.194,268.334,164.592z"/>
							</g>
						</g>
					</g>
					<g>
						<g>
							<path style="fill:#263238;" d="M252.221,227.767l3.923-5.072l-3.412-4.277l-5.817,2.699
								C247.703,223.85,249.534,226.283,252.221,227.767z"/>
							<path style="opacity:0.2;fill:#FFFFFF;" d="M252.732,218.417c0,0-0.874,0.405-1.362,0.632
								c0.782,1.896,2.089,3.588,3.855,4.834l0.919-1.189L252.732,218.417z"/>
							<path style="opacity:0.4;fill:#FFFFFF;" d="M249.909,219.728c-0.369,0.171-0.741,0.344-1.093,0.507
								c0.91,2.324,2.505,4.392,4.688,5.874l0.737-0.953C252.423,223.618,250.968,221.768,249.909,219.728z"/>
						</g>
						<g>
							<path style="fill:#407BFF;" d="M258.386,224.798c-3.649-2.016-6.136-5.32-7.207-9.033l36.171-28.859
								c4.258-3.397,9.49-4.747,14.507-4.183c-0.564,5.017-3.042,9.818-7.3,13.215L258.386,224.798z"/>
							<g>
								<path style="fill:#407BFF;" d="M287.35,186.906c0,0-30.412,24.264-34.097,27.204c1.285,3.624,3.746,6.844,7.206,9.033
									c3.684-2.939,34.098-27.205,34.098-27.205c4.258-3.397,6.736-8.199,7.3-13.215
									C296.84,182.159,291.608,183.509,287.35,186.906z"/>
								<path style="opacity:0.5;fill:#FFFFFF;" d="M287.35,186.906c0,0-30.412,24.264-34.097,27.204
									c1.285,3.624,3.746,6.844,7.206,9.033c3.684-2.939,34.098-27.205,34.098-27.205c4.258-3.397,6.736-8.199,7.3-13.215
									C296.84,182.159,291.608,183.509,287.35,186.906z"/>
							</g>
							<g>
								<path style="fill:#407BFF;" d="M287.35,186.906c0,0-0.572,0.457-1.564,1.248c1.477,3.537,3.92,6.693,7.205,9.034
									c0.993-0.792,1.566-1.249,1.566-1.249c4.258-3.397,6.736-8.199,7.3-13.215C296.84,182.159,291.608,183.509,287.35,186.906z"
									/>
								<path style="opacity:0.2;fill:#FFFFFF;" d="M287.35,186.906c0,0-0.572,0.457-1.564,1.248
									c1.477,3.537,3.92,6.693,7.205,9.034c0.993-0.792,1.566-1.249,1.566-1.249c4.258-3.397,6.736-8.199,7.3-13.215
									C296.84,182.159,291.608,183.509,287.35,186.906z"/>
							</g>
						</g>
					</g>
				</g>
				<g>
					<g>
						<path style="fill:#263238;" d="M242.092,220.445l6.334-8.189l-5.509-6.904l-9.391,4.357
							C234.798,214.121,237.754,218.049,242.092,220.445z"/>
						<path style="opacity:0.2;fill:#FFFFFF;" d="M242.917,205.351c0,0-1.41,0.654-2.198,1.02c1.262,3.062,3.373,5.792,6.223,7.803
							l1.484-1.919L242.917,205.351z"/>
						<path style="opacity:0.4;fill:#FFFFFF;" d="M238.359,207.467c-0.595,0.276-1.196,0.555-1.764,0.819
							c1.469,3.751,4.044,7.09,7.568,9.483l1.189-1.538C242.419,213.747,240.069,210.761,238.359,207.467z"/>
					</g>
					<g>
						<path style="fill:#407BFF;" d="M252.044,215.651c-5.891-3.254-9.906-8.589-11.634-14.582l58.393-46.589
							c6.874-5.484,15.32-7.663,23.419-6.753c-0.911,8.099-4.911,15.851-11.785,21.335L252.044,215.651z"/>
						<g>
							<path style="fill:#407BFF;" d="M298.803,154.48c0,0-49.096,39.172-55.046,43.918c2.074,5.851,6.048,11.05,11.633,14.583
								c5.947-4.745,55.047-43.919,55.047-43.919c6.874-5.484,10.874-13.236,11.785-21.335
								C314.123,146.817,305.677,148.996,298.803,154.48z"/>
							<path style="opacity:0.6;fill:#FFFFFF;" d="M298.803,154.48c0,0-49.096,39.172-55.046,43.918
								c2.074,5.851,6.048,11.05,11.633,14.583c5.947-4.745,55.047-43.919,55.047-43.919c6.874-5.484,10.874-13.236,11.785-21.335
								C314.123,146.817,305.677,148.996,298.803,154.48z"/>
						</g>
						<g>
							<path style="fill:#407BFF;" d="M298.803,154.48c0,0-0.924,0.737-2.525,2.015c2.385,5.711,6.328,10.805,11.632,14.584
								c1.603-1.279,2.528-2.017,2.528-2.017c6.874-5.484,10.874-13.236,11.785-21.335
								C314.123,146.817,305.677,148.996,298.803,154.48z"/>
							<path style="opacity:0.2;fill:#FFFFFF;" d="M298.803,154.48c0,0-0.924,0.737-2.525,2.015
								c2.385,5.711,6.328,10.805,11.632,14.584c1.603-1.279,2.528-2.017,2.528-2.017c6.874-5.484,10.874-13.236,11.785-21.335
								C314.123,146.817,305.677,148.996,298.803,154.48z"/>
						</g>
					</g>
					<g>
						<path style="fill:#407BFF;" d="M296.327,175.338c-2.345,1.871-5.764,1.487-7.635-0.858c-1.871-2.345-1.487-5.763,0.858-7.635
							s5.763-1.487,7.635,0.858C299.056,170.049,298.672,173.467,296.327,175.338z"/>
						<g>
							<path style="fill:#407BFF;" d="M288.692,174.48c-1.785-2.237-1.513-5.447,0.551-7.363c-0.113,0.077-0.225,0.153-0.333,0.24
								c-2.345,1.871-2.73,5.289-0.858,7.635c1.871,2.345,5.289,2.73,7.635,0.858c0.108-0.086,0.208-0.179,0.308-0.272
								C293.667,177.165,290.477,176.717,288.692,174.48z"/>
							<path style="opacity:0.3;" d="M288.692,174.48c-1.785-2.237-1.513-5.447,0.551-7.363c-0.113,0.077-0.225,0.153-0.333,0.24
								c-2.345,1.871-2.73,5.289-0.858,7.635c1.871,2.345,5.289,2.73,7.635,0.858c0.108-0.086,0.208-0.179,0.308-0.272
								C293.667,177.165,290.477,176.717,288.692,174.48z"/>
						</g>
						<path style="fill:#FFFFFF;" d="M295.334,174.094c-1.658,1.323-4.075,1.051-5.398-0.607c-1.323-1.658-1.051-4.075,0.607-5.398
							c1.658-1.323,4.075-1.051,5.398,0.607C297.264,170.354,296.993,172.771,295.334,174.094z"/>
						<g>
							<g>
								<path style="fill:#407BFF;" d="M289.826,173.317l6.765-3.385c-0.129-0.407-0.326-0.797-0.598-1.156l-6.745,3.375
									C289.366,172.562,289.566,172.953,289.826,173.317z"/>
								<path style="fill:#407BFF;" d="M290.876,174.313l5.883-2.944c0.018-0.24,0.013-0.48-0.014-0.72l-6.435,3.22
									C290.486,174.037,290.675,174.184,290.876,174.313z"/>
							</g>
							<g style="opacity:0.7;">
								<path style="fill:#FFFFFF;" d="M289.826,173.317l6.765-3.385c-0.129-0.407-0.326-0.797-0.598-1.156l-6.745,3.375
									C289.366,172.562,289.566,172.953,289.826,173.317z"/>
								<path style="fill:#FFFFFF;" d="M290.876,174.313l5.883-2.944c0.018-0.24,0.013-0.48-0.014-0.72l-6.435,3.22
									C290.486,174.037,290.675,174.184,290.876,174.313z"/>
							</g>
						</g>
					</g>
				</g>
			</g>
		</g>
	</g>
</g>
<g id="Metric">
	<g>
		<g>
			<rect x="308.518" y="234.337" style="fill:#407BFF;" width="53.736" height="180.405"/>
			<rect x="308.393" y="234.324" style="opacity:0.2;" width="15.185" height="180.324"/>
		</g>
		<g>
			<rect x="64.886" y="364.567" style="fill:#407BFF;" width="53.735" height="50.175"/>
			<rect x="64.388" y="364.517" style="opacity:0.2;" width="15.185" height="50.131"/>
		</g>
		<g>
			<rect x="142.911" y="321.157" style="fill:#407BFF;" width="53.736" height="93.585"/>
			<rect x="142.537" y="321.12" style="opacity:0.2;" width="15.185" height="93.529"/>
		</g>
		<g>
			<rect x="226.493" y="277.747" style="fill:#407BFF;" width="53.736" height="136.995"/>
			<rect x="226.245" y="277.722" style="opacity:0.2;" width="15.185" height="136.927"/>
		</g>
		<g>
			<rect x="386.542" y="190.926" style="fill:#407BFF;" width="53.737" height="223.814"/>
			<rect x="386.542" y="190.926" style="opacity:0.2;" width="15.185" height="223.722"/>
		</g>
	</g>
</g>
<g id="Character">
	<g>
		<g>
			<g>
				<polygon style="fill:#FF8B7B;" points="171.922,291.837 167.476,306.994 174.024,308.52 178.996,294.024 				"/>
				<g>
					<path style="fill:#263238;" d="M175.485,306.768l-7.532-1.445c-0.284-0.055-0.573,0.109-0.695,0.393l-2.692,6.302
						c-0.243,0.557-0.021,1.202,0.494,1.44c0.066,0.03,0.135,0.053,0.206,0.068c2.725,0.47,5.172,0.774,8.551,1.428
						c3.989,0.767,2.873,1.084,7.548,2.055c2.817,0.582,4.032-2.759,2.868-3.158c-5.334-1.792-5.544-3.675-7.233-6.183
						C176.624,307.176,176.084,306.856,175.485,306.768z"/>
				</g>
				<polygon style="fill:#263238;" points="136.549,192.953 162.356,208.749 135.318,213.484 				"/>
				<g>
					<path style="fill:#263238;" d="M177.916,301.361l-9.314-1.672c0,0,3.466-12.923,7.225-30.578
						c0.579-2.721,8.077-23.425,8.077-23.425s-36.969-17.34-37.593-17.523c-0.471-0.15-3.5-0.387-8.234-4.087
						c-8.797-6.876-6.034-20.334-6.034-20.334l23.034,0.551c22.449,11.987,41.94,29.527,44.571,36.71
						C203.348,251.107,177.916,301.361,177.916,301.361z"/>
				</g>
			</g>
			<g>
				<polygon style="fill:#FF8B7B;" points="85.573,285.087 70.198,288.714 72.108,295.159 87.167,292.318 				"/>
				<g>
					<path style="fill:#263238;" d="M74.354,295.564l-2.466-7.262c-0.093-0.274-0.378-0.444-0.686-0.41l-6.809,0.775
						c-0.604,0.065-1.055,0.576-1.007,1.141c0.006,0.073,0.02,0.144,0.043,0.213c0.938,2.602,1.883,4.879,2.985,8.14
						c1.305,3.846,0.478,3.033,1.944,7.578c0.886,2.737,4.391,2.142,4.163,0.933c-1.079-5.522,0.454-6.635,1.8-9.343
						C74.561,296.756,74.573,296.128,74.354,295.564z"/>
				</g>
				<g>
					<path style="fill:#263238;" d="M80.255,295.005l-3.15-8.923l48.918-27.25c0,0-3.198-40.708-3.347-41.341
						c-0.102-0.484-1.393-3.234-0.517-9.179c1.629-11.046,14.694-15.295,14.694-15.295l11.16,23.577
						c-0.019,0.006-5.194,47.773-10.138,53.61C130.922,278.413,80.255,295.005,80.255,295.005z"/>
				</g>
			</g>
			<polygon style="opacity:0.2;" points="146.311,228.164 138.076,224.077 144.423,243.602 			"/>
		</g>
		<g>
			<g>
				<g>
					<path style="fill:#407BFF;" d="M165.957,164.083c-4.238,0.908-8.499,1.713-12.759,2.511l-3.199,0.578l-2.85,0.493
						c-1.204,0.243-2.343,0.841-3.284,1.732l-4.443,4.578c-1.505,1.554-3.003,3.115-4.535,4.646
						c-3.04,3.082-6.095,6.152-9.212,9.167c-1.093,1.057-2.836,1.027-3.892-0.066c-0.932-0.964-1.018-2.434-0.275-3.493
						c2.486-3.549,5.035-7.043,7.599-10.524c1.27-1.75,2.574-3.472,3.87-5.199l3.969-5.262c1.911-2.353,4.585-4.125,7.531-5.058
						l3.464-0.932l3.121-0.821c4.166-1.067,8.332-2.127,12.52-3.085c2.96-0.676,5.907,1.175,6.583,4.134
						c0.676,2.96-1.175,5.907-4.134,6.583C166.015,164.07,165.971,164.079,165.957,164.083z"/>
					<path style="opacity:0.1;" d="M165.957,164.083c-4.238,0.908-8.499,1.713-12.759,2.511l-3.199,0.578l-2.85,0.493
						c-1.204,0.243-2.343,0.841-3.284,1.732l-4.443,4.578c-1.505,1.554-3.003,3.115-4.535,4.646
						c-3.04,3.082-6.095,6.152-9.212,9.167c-1.093,1.057-2.836,1.027-3.892-0.066c-0.932-0.964-1.018-2.434-0.275-3.493
						c2.486-3.549,5.035-7.043,7.599-10.524c1.27-1.75,2.574-3.472,3.87-5.199l3.969-5.262c1.911-2.353,4.585-4.125,7.531-5.058
						l3.464-0.932l3.121-0.821c4.166-1.067,8.332-2.127,12.52-3.085c2.96-0.676,5.907,1.175,6.583,4.134
						c0.676,2.96-1.175,5.907-4.134,6.583C166.015,164.07,165.971,164.079,165.957,164.083z"/>
					<g>
						<path style="fill:#FF8B7B;" d="M120.663,184.196l-6.601,2.56l5.971,5.786l4.982-3.958c0.59-0.469,0.679-1.342,0.175-1.902
							C124.259,185.648,122.637,184.242,120.663,184.196z"/>
						<path style="fill:#FF8B7B;" d="M114.062,186.756l-1.042,1.928c-0.515,0.952-0.269,2.137,0.583,2.806l2.119,1.664
							c0.645,0.507,1.517,0.617,2.269,0.287l2.043-0.898L114.062,186.756z"/>
					</g>
				</g>
				<g>
					<g>
						<path style="fill:#263238;" d="M84.421,212.932l-2.432-0.406l1.507-1.822l30.416-10.929c4.836-1.738,7.968-5.038,5.499-10.915
							c-2.31-5.497-7.507-7.13-12.342-5.414l-30.413,10.794l-2.452-0.464l1.53-1.755l30.413-10.776
							c5.622-1.992,11.055-1.539,14.689,7.105c3.64,8.66-0.374,11.609-5.997,13.633L84.421,212.932z"/>
					</g>
					<g>
						<g>
							<path style="fill:#263238;" d="M93.431,179.931l-0.668-1.506c-1.391-3.138-4.9-4.75-8.187-3.762l-22.43,6.74l4.032,9.91
								L93.431,179.931z"/>
							<path style="opacity:0.2;fill:#FFFFFF;" d="M93.431,179.931l-0.668-1.506c-1.391-3.138-4.9-4.75-8.187-3.762l-22.43,6.74
								l4.032,9.91L93.431,179.931z"/>
						</g>
						<g>
							<g>
								<path style="fill:#263238;" d="M85.719,216.488l-0.927-2.232l29.493-12.985c4.689-2.064,7.701-5.633,5.227-11.52
									c-2.314-5.506-7.395-6.879-12.083-4.837L77.937,197.76l-0.924-2.223l29.492-12.828c5.452-2.371,10.748-2.223,14.388,6.436
									c3.647,8.675-0.228,11.935-5.681,14.338L85.719,216.488z"/>
							</g>
							<path style="fill:#263238;" d="M82.36,230.417l-18.18-43.932l22.043-9.394c2.818-1.216,6.043,0.056,7.208,2.841
								l13.347,31.936c1.507,3.607-0.204,7.836-3.83,9.445L82.36,230.417z"/>
							<g style="opacity:0.3;">
								<path style="fill:#FFFFFF;" d="M85.719,216.488l-2.373-0.275l1.446-1.957l29.493-12.985
									c4.689-2.064,7.701-5.633,5.227-11.52c-2.314-5.506-7.395-6.879-12.083-4.837L77.937,197.76l-2.393-0.333l1.47-1.89
									l29.492-12.828c5.452-2.371,10.748-2.223,14.388,6.436c3.647,8.675-0.228,11.935-5.681,14.338L85.719,216.488z"/>
							</g>
							<polygon style="fill:#263238;" points="89.612,193.414 88.087,189.756 89.454,189.162 90.979,192.818 							"/>
							<polygon style="fill:#263238;" points="80.746,197.277 79.222,193.61 80.595,193.013 82.12,196.678 							"/>
							<polygon style="fill:#263238;" points="97.447,212.206 95.916,208.535 97.284,207.933 98.815,211.603 							"/>
							<polygon style="fill:#263238;" points="88.582,216.117 87.051,212.436 88.425,211.832 89.955,215.511 							"/>
						</g>
					</g>
				</g>
			</g>
			<g>
				<g>
					<path style="fill:#263238;" d="M200.474,147.386c0.283,0.147,0.342,0.61,0.128,1.045s-0.618,0.682-0.902,0.535
						c-0.283-0.147-0.342-0.61-0.128-1.045C199.777,147.458,200.191,147.239,200.474,147.386z"/>
					<path style="fill:#263238;" d="M200.272,147.732c0.344,0.081,0.782,0.001,1.087-0.178c-0.374,0.031-0.758-0.09-1.047-0.33
						C200.375,147.378,200.368,147.598,200.272,147.732z"/>
					<path style="fill:#FF5652;" d="M197.782,151.897c0.627,0.538,1.459,0.772,2.274,0.638c-0.296-1.567-0.378-3.167-0.243-4.756
						L197.782,151.897z"/>
					<path style="fill:#263238;" d="M198.889,145.145c0.712-0.166,1.46,0.021,2.009,0.504l0,0c0.018,0.026,0.04,0.05,0.065,0.069
						c0.128,0.097,0.309,0.072,0.406-0.055c0.097-0.128,0.072-0.309-0.055-0.406c-0.67-0.624-1.6-0.884-2.497-0.699
						c-0.068,0.014-0.128,0.051-0.171,0.105c-0.099,0.126-0.078,0.308,0.048,0.407C198.747,145.119,198.816,145.146,198.889,145.145
						z"/>
					<path style="fill:#FF8B7B;" d="M178.928,165.586c-6.473-5.001-4.696-9.272-4.696-9.272c3.385-0.366,6.186-3.716,8.193-7.09
						c-0.054,1.078,0.082,2.166,0.462,3.335c0.738,2.222,5.349,3.231,5.349,3.231c0.009,0.007-0.45,0.569-1.054,1.423
						c-1.477,2.083-3.811,5.942-2.42,7.923C184.761,165.137,186.063,171.097,178.928,165.586z"/>
					<path style="fill:#FF8B7B;" d="M187.919,156.385c-0.301,0.241-0.602,0.482-0.891,0.762c-0.041-0.003-0.075-0.015-0.102-0.036
						c-1.798-0.814-3.297-2.332-4.036-4.554c-0.385-1.174-0.525-2.258-0.468-3.335c0.514-0.852,0.97-1.72,1.377-2.526l3.97,9.343
						L187.919,156.385z"/>
					<g>
						<path style="fill:#FF8B7B;" d="M196.657,154.778c-1.92,2.337-4.8,3.314-7.478,2.969l-0.009-0.007
							c-0.016,0.002-0.025-0.005-0.034-0.012c-0.731-0.076-1.437-0.277-2.108-0.58c-0.041-0.003-0.075-0.015-0.102-0.036
							c-1.798-0.814-3.297-2.332-4.036-4.554c-0.385-1.174-0.525-2.258-0.468-3.335c0.105-2.719,1.401-5.438,3.057-9.386
							c0.474-1.171,1.214-2.222,2.16-3.056c3.384-2.986,8.546-2.66,11.524,0.717C203.358,142.219,200.177,150.518,196.657,154.778z"
							/>
						<path style="opacity:0.2;" d="M188.728,157.596c-0.674-0.07-0.986-0.135-1.548-0.382c0.604-0.853,1.063-1.416,1.054-1.423
							c0.609-0.682,1.226-1.357,1.226-1.357C189.44,154.46,188.392,157.33,188.728,157.596z"/>
					</g>
					<path style="fill:#263238;" d="M201.885,144.694c-1.178,0.418-3.378-0.18-3.17-0.329c0.827-0.466,1.82-1.829,0.721-2.194
						c-0.18,0.714-2.602,5.235-3.302,5.462c-0.383,0.124-3.053,3.162-6.61,4.891c-2.837,1.379-3.384,2.071-3.384,2.071l-5.049-2.616
						c-1.478-1.5-5.051-14.931,2.516-17.487c2.486-0.84,4.385-2.944,8.321-1.813c2.433,0.699,5.285,0.269,7.677,1.097
						c2.392,0.828,4.6,2.621,5.238,5.071C205.157,140.051,204.838,143.647,201.885,144.694z"/>
					<path style="fill:#FF8B7B;" d="M197.316,145.771c1.037,1.462,0.17,4.007-0.77,5.316c-1.037,1.447-2.665,1.593-3.144-0.303
						c-0.348-1.444-0.212-2.961,0.387-4.32C194.539,144.836,196.279,144.309,197.316,145.771z"/>
				</g>
				<g id="_x3C_Group_x3E__1_">
					<g>
						<path style="fill:#407BFF;" d="M170.561,157.172c0,0,3.428-2.29,5.7-2.074c2.272,0.216,8.079,6.441,8.794,7.663
							c0.715,1.222-0.125,4.432-0.125,4.432L170.561,157.172z"/>
						<path style="opacity:0.3;fill:#FFFFFF;" d="M170.561,157.172c0,0,3.428-2.29,5.7-2.074c2.272,0.216,8.079,6.441,8.794,7.663
							c0.715,1.222-0.125,4.432-0.125,4.432L170.561,157.172z"/>
						<g>
							<g>
								<path style="fill:#407BFF;" d="M186.678,167.77c-0.894-0.981-1.055-1.36-2.158-2.382c-3.412-2.965-6.992-5.731-10.722-8.283
									c-1.365-0.928-2.805-1.66-4.273-2.339c-3.015-1.394-6.589-0.382-8.44,2.348c-5.18,7.638-6.392,13.562-9.833,18.565
									c-6.855,9.968-13.613,15.417-15.617,17.425l4.274,4.574c8.837,6.647,16.07,9.332,22.448,11.072l0,0
									c0,0,7.796-12.442,12.265-15.612c12.212-8.663,11.475-12.142,13.373-15.885C189.57,174.14,189.046,170.365,186.678,167.77z"
									/>
								<g>
									<path style="fill:#407BFF;" d="M187.994,177.261c-0.682,1.333-1.018,2.65-1.751,4.177
										c-0.874,1.857-2.323,4.037-5.633,6.983c-1.537,1.391-3.49,2.938-5.983,4.713c-1.46,1.03-3.266,3.054-5.037,5.294
										c-0.009,0.011-0.018,0.023-0.027,0.035c-1.671,2.112-1.814,5.052-0.406,7.347c3.171,5.169,8.041,12.546,8.041,12.546
										c-3.434-0.899-4.836-1.27-10.313,0.462c-8.558,2.7-26.502,0.317-31.564-6.909c1.433-3.371,3.432-6.431,6.22-8.805
										c-3.067,1.967-6.072,4.639-8.571,7.289c-2.257,0.463-4.551-0.772-6.182-2.386c-1.64-1.616-2.846-3.627-4.417-5.302
										c-1.579-1.687-3.289-3.243-5.585-3.048c2.996-3.962,8.071-5.636,12.839-7.025c3.563-1.024,8.104-2.499,11.507-4.756
										c2.881-2.903,6.488-6.91,10.123-12.192c3.432-5.011,4.648-10.923,9.831-18.571c1.847-2.732,5.428-3.743,8.442-2.345
										c1.465,0.672,2.901,1.41,4.276,2.34c3.719,2.555,7.306,5.311,10.719,8.271c1.098,1.027,1.26,1.405,2.154,2.391
										C189.04,170.376,189.57,174.134,187.994,177.261z"/>
									<g>
										<path style="fill:#FF8B7B;" d="M235.31,164.208l5.149-2.224c0.214-0.092,0.415-0.212,0.599-0.354l2.324-1.807
											c0.296-0.242,0.465-0.667,0.348-1.083l-2.348-3.745c-0.161-0.59-0.742-0.978-1.284-0.86l-3.478,1.293
											c-0.26,0.097-0.494,0.254-0.682,0.459l-3.488,3.804c-0.282,0.332-0.347,0.831-0.166,1.281l1.541,2.443
											C234.082,164.056,234.74,164.41,235.31,164.208z"/>
									</g>
									<path style="opacity:0.2;" d="M180.613,188.423l2.219-12.103l4.694,2.528C185.869,183.236,183.923,185.475,180.613,188.423
										z"/>
									<path style="fill:#407BFF;" d="M214.585,180.064c6.413-4.467,14.477-10.767,20.355-15.831
										c0.546-1.938-1.282-4.494-3.139-3.714c-4.628,1.944-18.465,9.611-20.901,9.682c-1.685,0.05-18.983-2.454-24.664-3.268
										c-1.124-0.161-2.283,0.057-3.225,0.692c-3.133,2.112-3.931,4.437-3.75,6.478c0.283,3.191,3.014,5.615,6.209,5.855
										c7.912,0.595,19.765,1.253,24.392,1.453C211.543,181.484,213.204,181.025,214.585,180.064z"/>
									<path style="fill:#263238;" d="M192.871,149.632c-1.825,5.233-4.261,15.21-8.269,19.037
										c-4.008,3.827-9.641,3.953-15.027,5.262c-1.299,0.315-2.949,1.945-2.92,1.693c-1.386,1.458-2.116,3.331-2.415,5.321
										c-1.942-1.519-3.883-3.038-5.825-4.557c-0.551-0.431-1.123-0.889-1.408-1.528c-0.48-1.079-0.004-2.345,0.649-3.329
										c0.653-0.984,1.415-2.765,1.768-3.892c-2.068,1.696-3.524,3.458-4.344,6.003c-2.843-1.031-6.159-3.394-6.224-6.417
										c-0.051-2.383,0.962-4.769,2.712-6.386c-2.018,1.022-3.535,2.712-4.598,4.709c-0.607-1.783-2.096-3.569-3.978-3.508
										c1.591-3.143,3.209-6.325,5.55-8.958c2.341-2.633,5.528-4.698,9.042-4.943c2.678-0.187,5.304,0.678,7.862,1.493
										c2.558,0.816,5.225,1.602,7.887,1.255c2.662-0.347,5.397-4.419,5.894-7.058
										C182.949,141.571,188.338,146.929,192.871,149.632z"/>
								</g>
							</g>
						</g>
					</g>
				</g>
			</g>
		</g>
	</g>
</g>
<g id="Helm">
	<path style="opacity:0.2;" d="M210.591,144.867c-0.548,10.816-9.76,19.141-20.586,18.593l-0.07-0.004
		c-0.829-0.042-1.645-0.143-2.438-0.294c-3.802-5.399-8.942-9.675-14.907-12.5c-0.273-0.745-0.504-1.517-0.684-2.308
		c-0.412-1.753-0.59-3.584-0.494-5.472c0.548-10.826,9.761-19.151,20.577-18.603C202.815,124.828,211.139,134.041,210.591,144.867z"
		/>
	<g>
		<g>
			<path style="fill:#407BFF;" d="M197.646,162.336c-2.376,0.851-4.96,1.261-7.637,1.125l-0.07-0.004
				c-0.839-0.042-1.645-0.143-2.438-0.294c-3.802-5.399-8.952-9.675-14.907-12.5c-0.272-0.745-0.514-1.518-0.684-2.307
				c-0.412-1.753-0.6-3.585-0.504-5.473c0.456-9.008,6.923-16.291,15.318-18.159l0.01,0.001c1.142,0.579,2.161,1.421,2.931,2.421
				c1.749,2.241,2.484,5.122,2.862,7.945c0.584,4.283,0.484,8.66-0.299,12.914c-0.541,2.941-0.365,5.993,0.824,8.737
				C194.974,161.179,197.646,162.336,197.646,162.336z"/>
			<path style="opacity:0.4;fill:#FFFFFF;" d="M197.646,162.336c-2.376,0.851-4.96,1.261-7.637,1.125l-0.07-0.004
				c-0.839-0.042-1.645-0.143-2.438-0.294c-3.802-5.399-8.952-9.675-14.907-12.5c-0.272-0.745-0.514-1.518-0.684-2.307
				c-0.412-1.753-0.6-3.585-0.504-5.473c0.456-9.008,6.923-16.291,15.318-18.159l0.01,0.001c1.142,0.579,2.161,1.421,2.931,2.421
				c1.749,2.241,2.484,5.122,2.862,7.945c0.584,4.283,0.484,8.66-0.299,12.914c-0.541,2.941-0.365,5.993,0.824,8.737
				C194.974,161.179,197.646,162.336,197.646,162.336z"/>
			<path style="fill:#407BFF;" d="M189.691,164.898c-0.66,0.598-1.277-0.083-1.277-0.083c-0.327-0.522-0.664-1.045-1.012-1.549
				c-3.724-5.453-8.802-9.802-14.726-12.713c-0.601-0.31-1.214-0.59-1.828-0.86c-0.536-0.235-0.444-1.031,0.002-1.413
				c0.318-0.27,0.819-0.268,1.175-0.044c0.135,0.079,0.248,0.196,0.329,0.342c6.939,3.327,13.177,8.634,17.482,15.016
				c0.009,0.011,0.018,0.031,0.027,0.042C189.863,163.637,190.33,164.308,189.691,164.898z"/>
		</g>
		<g>
			<path style="fill:#263238;" d="M193.805,145.518c0,0.957-0.776,1.732-1.732,1.732c-0.957,0-1.732-0.776-1.732-1.732
				s0.775-1.732,1.732-1.732C193.029,143.786,193.805,144.561,193.805,145.518z"/>
			<path style="fill:#407BFF;" d="M194.379,146.038c0,0.957-0.775,1.732-1.732,1.732c-0.957,0-1.732-0.776-1.732-1.732
				s0.776-1.732,1.732-1.732C193.604,144.306,194.379,145.081,194.379,146.038z"/>
			<path style="opacity:0.7;fill:#FFFFFF;" d="M194.379,146.038c0,0.957-0.775,1.732-1.732,1.732c-0.957,0-1.732-0.776-1.732-1.732
				s0.776-1.732,1.732-1.732C193.604,144.306,194.379,145.081,194.379,146.038z"/>
		</g>
	</g>
</g>
<g id="Target">
	<g>
		<g>
			<g>
				<g>
					<g>
						<g>
							<path style="fill:#407BFF;" d="M438.314,104.128c0,13.561-10.992,24.552-24.552,24.552c-0.547,0-1.095-0.014-1.642-0.056
								c-12.774-0.842-22.896-11.483-22.896-24.496c0-13.013,10.122-23.654,22.896-24.496c0.548-0.042,1.095-0.056,1.642-0.056
								C427.322,79.576,438.314,90.568,438.314,104.128z"/>
						</g>
						<path style="opacity:0.2;fill:#FFFFFF;" d="M435.029,104.128c0,13.013-10.121,23.654-22.91,24.496
							c-12.774-0.842-22.896-11.483-22.896-24.496c0-13.013,10.122-23.654,22.896-24.496
							C424.908,80.475,435.029,91.115,435.029,104.128z"/>
						
							<ellipse transform="matrix(0.3827 -0.9239 0.9239 0.3827 158.1766 444.9827)" style="opacity:0.4;fill:#FFFFFF;" cx="412.07" cy="104.127" rx="18.368" ry="18.369"/>
					</g>
				</g>
				
					<ellipse transform="matrix(0.9732 -0.2298 0.2298 0.9732 -12.8675 97.4688)" style="opacity:0.4;fill:#FFFFFF;" cx="412.126" cy="103.991" rx="13.57" ry="13.57"/>
				<path style="fill:#263238;" d="M416.56,104.127c0,2.925-2.371,5.296-5.296,5.296c-2.925,0-5.296-2.371-5.296-5.296
					c0-2.925,2.371-5.296,5.296-5.296C414.189,98.831,416.56,101.203,416.56,104.127z"/>
			</g>
			<g>
				<g>
					<g>
						<polygon style="fill:#407BFF;" points="374.437,122.337 379.353,123.143 386.549,118.888 386.55,118.881 382.878,117.259 
													"/>
					</g>
					<g>
						
							<rect x="376.985" y="114.125" transform="matrix(0.8606 -0.5093 0.5093 0.8606 -3.3892 216.6026)" style="fill:#263238;" width="33.976" height="0.734"/>
					</g>
					<g>
						<polygon style="fill:#407BFF;" points="378.721,127.535 385.823,123.317 386.549,118.888 379.353,123.143 						"/>
						<polygon style="opacity:0.2;" points="378.721,127.535 385.823,123.317 386.549,118.888 379.353,123.143 						"/>
					</g>
				</g>
				<g>
					<polygon style="fill:#FFFFFF;" points="410.491,103.865 405.614,105.115 410.061,107.565 412.07,104.37 					"/>
				</g>
			</g>
		</g>
		<g>
			<path style="fill:#407BFF;" d="M412.96,72.785c-1.008,0-1.824-0.816-1.824-1.824v-8.055c0-1.008,0.816-1.824,1.824-1.824
				s1.824,0.816,1.824,1.824v8.055C414.784,71.968,413.968,72.785,412.96,72.785z"/>
			<path style="fill:#407BFF;" d="M412.96,147.175c-1.008,0-1.824-0.816-1.824-1.824v-8.055c0-1.008,0.816-1.824,1.824-1.824
				s1.824,0.816,1.824,1.824v8.055C414.784,146.358,413.968,147.175,412.96,147.175z"/>
			<path style="fill:#407BFF;" d="M379.884,104.809h-8.055c-1.008,0-1.824-0.816-1.824-1.824s0.816-1.824,1.824-1.824h8.055
				c1.008,0,1.824,0.816,1.824,1.824S380.891,104.809,379.884,104.809z"/>
			<path style="fill:#407BFF;" d="M455.139,104.809h-8.055c-1.008,0-1.824-0.816-1.824-1.824s0.816-1.824,1.824-1.824h8.055
				c1.008,0,1.824,0.816,1.824,1.824S456.146,104.809,455.139,104.809z"/>
		</g>
	</g>
</g>
</svg>
