<?xml version="1.0" encoding="utf-8"?>
<!-- Generator: Adobe Illustrator 27.5.0, SVG Export Plug-In . SVG Version: 6.00 Build 0)  -->
<svg version="1.1" xmlns="http://www.w3.org/2000/svg" xmlns:xlink="http://www.w3.org/1999/xlink" x="0px" y="0px"
	 viewBox="0 0 500 500" style="enable-background:new 0 0 500 500;" xml:space="preserve">
<g id="Background_Complete">
	<g>
		<rect y="382.398" style="fill:#EBEBEB;" width="500" height="0.25"/>
		<rect x="416.779" y="398.494" style="fill:#EBEBEB;" width="33.122" height="0.25"/>
		<rect x="322.527" y="401.208" style="fill:#EBEBEB;" width="8.693" height="0.25"/>
		<rect x="396.586" y="389.208" style="fill:#EBEBEB;" width="19.192" height="0.25"/>
		<rect x="52.459" y="390.888" style="fill:#EBEBEB;" width="43.193" height="0.25"/>
		<rect x="104.556" y="390.888" style="fill:#EBEBEB;" width="6.333" height="0.25"/>
		<rect x="131.471" y="395.111" style="fill:#EBEBEB;" width="93.676" height="0.25"/>
		<path style="fill:#EBEBEB;" d="M237.014,337.8H43.915c-3.147,0-5.708-2.561-5.708-5.708V60.66c0-3.147,2.561-5.708,5.708-5.708
			h193.099c3.146,0,5.707,2.561,5.707,5.708v271.432C242.721,335.239,240.16,337.8,237.014,337.8z M43.915,55.203
			c-3.01,0-5.458,2.448-5.458,5.458v271.432c0,3.01,2.448,5.458,5.458,5.458h193.099c3.009,0,5.457-2.448,5.457-5.458V60.66
			c0-3.009-2.448-5.458-5.457-5.458H43.915z"/>
		<path style="fill:#EBEBEB;" d="M453.31,337.8H260.212c-3.147,0-5.707-2.561-5.707-5.708V60.66c0-3.147,2.561-5.708,5.707-5.708
			H453.31c3.148,0,5.708,2.561,5.708,5.708v271.432C459.019,335.239,456.458,337.8,453.31,337.8z M260.212,55.203
			c-3.009,0-5.457,2.448-5.457,5.458v271.432c0,3.01,2.448,5.458,5.457,5.458H453.31c3.01,0,5.458-2.448,5.458-5.458V60.66
			c0-3.009-2.448-5.458-5.458-5.458H260.212z"/>
	</g>
	<g>
		<polygon style="fill:#E6E6E6;" points="437.882,381.744 437.882,334.923 433.879,334.923 433.879,312.615 428.027,312.615 
			428.027,235.049 419.567,235.049 419.567,225.04 401.504,216.616 401.504,206.524 399.002,206.524 399.002,235.049 
			395.499,235.049 395.499,312.615 391.996,312.615 391.996,271.83 382.488,271.83 382.488,250.812 379.835,250.812 
			379.835,312.615 372.613,312.615 372.613,289.095 367.859,289.095 367.859,283.09 356.85,283.09 356.85,262.572 350.821,262.572 
			350.821,248.06 343.41,248.06 343.41,226.917 340.765,226.917 340.765,248.06 333.354,248.06 333.354,262.572 327.325,262.572 
			327.325,283.09 316.315,283.09 316.315,289.095 311.561,289.095 311.561,312.615 305.923,312.615 305.923,283.09 294.913,283.09 
			294.913,219.535 291.41,219.535 291.41,212.529 267.89,212.529 267.89,219.535 262.886,219.535 262.886,265.575 242.869,265.575 
			242.869,270.078 235.363,270.078 235.363,273.582 242.869,273.582 242.869,291.597 221.851,291.597 221.851,231.546 
			217.347,231.546 217.347,218.785 207.589,218.785 207.589,173.496 204.837,173.496 204.837,218.785 197.831,218.785 
			197.831,231.546 156.758,231.546 156.758,227.345 154.255,227.345 154.255,255.87 150.752,255.87 150.752,256.37 148.648,256.37 
			148.648,284.894 145.145,284.894 145.145,292.651 137.741,292.651 137.741,271.633 135.088,271.633 135.088,321.676 
			132.134,321.676 132.134,300.658 129.481,300.658 129.481,333.436 127.867,333.436 127.867,309.916 123.113,309.916 
			123.113,303.911 112.103,303.911 112.103,283.393 106.074,283.393 106.074,268.881 98.663,268.881 98.663,247.738 96.018,247.738 
			96.018,268.881 88.607,268.881 88.607,283.393 82.578,283.393 82.578,303.911 71.569,303.911 71.569,309.916 66.815,309.916 
			66.815,332.935 65.961,332.935 65.961,333.436 63.607,333.436 63.607,381.744 		"/>
		<g>
			<rect x="179.675" y="234.352" style="fill:#F0F0F0;" width="2.836" height="2.836"/>
			<rect x="179.675" y="239.106" style="fill:#F0F0F0;" width="2.836" height="2.836"/>
			<rect x="179.675" y="258.122" style="fill:#F0F0F0;" width="2.836" height="2.836"/>
			<rect x="179.675" y="262.876" style="fill:#F0F0F0;" width="2.836" height="2.836"/>
			<rect x="179.675" y="267.63" style="fill:#F0F0F0;" width="2.836" height="2.836"/>
			<rect x="179.675" y="281.892" style="fill:#F0F0F0;" width="2.836" height="2.836"/>
			<rect x="179.675" y="286.646" style="fill:#F0F0F0;" width="2.836" height="2.836"/>
			<rect x="184.178" y="253.368" style="fill:#F0F0F0;" width="2.836" height="2.836"/>
			<rect x="184.178" y="258.122" style="fill:#F0F0F0;" width="2.836" height="2.836"/>
			<rect x="184.178" y="262.876" style="fill:#F0F0F0;" width="2.836" height="2.836"/>
			<rect x="184.178" y="267.63" style="fill:#F0F0F0;" width="2.836" height="2.836"/>
			<rect x="184.178" y="272.384" style="fill:#F0F0F0;" width="2.836" height="2.836"/>
			<rect x="184.178" y="281.892" style="fill:#F0F0F0;" width="2.836" height="2.836"/>
			<rect x="184.178" y="286.646" style="fill:#F0F0F0;" width="2.836" height="2.836"/>
			<rect x="188.682" y="234.352" style="fill:#F0F0F0;" width="2.836" height="2.836"/>
			<rect x="188.682" y="239.106" style="fill:#F0F0F0;" width="2.836" height="2.836"/>
			<rect x="188.682" y="243.86" style="fill:#F0F0F0;" width="2.836" height="2.836"/>
			<rect x="188.682" y="248.614" style="fill:#F0F0F0;" width="2.836" height="2.836"/>
			<rect x="188.682" y="253.368" style="fill:#F0F0F0;" width="2.836" height="2.836"/>
			<rect x="188.682" y="258.122" style="fill:#F0F0F0;" width="2.836" height="2.836"/>
			<rect x="188.682" y="262.876" style="fill:#F0F0F0;" width="2.836" height="2.836"/>
			<rect x="188.682" y="267.63" style="fill:#F0F0F0;" width="2.836" height="2.836"/>
			<rect x="188.682" y="272.384" style="fill:#F0F0F0;" width="2.836" height="2.836"/>
			<rect x="188.682" y="277.138" style="fill:#F0F0F0;" width="2.836" height="2.836"/>
			<rect x="188.682" y="286.646" style="fill:#F0F0F0;" width="2.836" height="2.836"/>
			<rect x="193.186" y="234.352" style="fill:#F0F0F0;" width="2.836" height="2.836"/>
			<rect x="193.186" y="239.106" style="fill:#F0F0F0;" width="2.836" height="2.836"/>
			<rect x="193.186" y="243.86" style="fill:#F0F0F0;" width="2.836" height="2.836"/>
			<rect x="193.186" y="248.614" style="fill:#F0F0F0;" width="2.836" height="2.836"/>
			<rect x="193.186" y="253.368" style="fill:#F0F0F0;" width="2.836" height="2.836"/>
			<rect x="193.186" y="258.122" style="fill:#F0F0F0;" width="2.836" height="2.836"/>
			<rect x="193.186" y="262.876" style="fill:#F0F0F0;" width="2.836" height="2.836"/>
			<rect x="193.186" y="305.662" style="fill:#F0F0F0;" width="2.836" height="2.836"/>
			<rect x="197.69" y="234.352" style="fill:#F0F0F0;" width="2.836" height="2.836"/>
			<rect x="197.69" y="239.106" style="fill:#F0F0F0;" width="2.836" height="2.836"/>
			<rect x="197.69" y="243.86" style="fill:#F0F0F0;" width="2.836" height="2.836"/>
			<rect x="197.69" y="248.614" style="fill:#F0F0F0;" width="2.836" height="2.836"/>
			<rect x="197.69" y="253.368" style="fill:#F0F0F0;" width="2.836" height="2.836"/>
			<rect x="197.69" y="258.122" style="fill:#F0F0F0;" width="2.836" height="2.836"/>
			<rect x="197.69" y="262.876" style="fill:#F0F0F0;" width="2.836" height="2.836"/>
			<rect x="197.69" y="267.63" style="fill:#F0F0F0;" width="2.836" height="2.836"/>
			<rect x="197.69" y="296.154" style="fill:#F0F0F0;" width="2.836" height="2.836"/>
			<rect x="197.69" y="300.908" style="fill:#F0F0F0;" width="2.836" height="2.836"/>
			<rect x="197.69" y="305.662" style="fill:#F0F0F0;" width="2.836" height="2.836"/>
			<rect x="197.69" y="310.417" style="fill:#F0F0F0;" width="2.836" height="2.836"/>
			<rect x="197.69" y="329.433" style="fill:#F0F0F0;" width="2.836" height="2.836"/>
			<rect x="202.194" y="234.352" style="fill:#F0F0F0;" width="2.836" height="2.836"/>
			<rect x="202.194" y="239.106" style="fill:#F0F0F0;" width="2.836" height="2.836"/>
			<rect x="202.194" y="243.86" style="fill:#F0F0F0;" width="2.836" height="2.836"/>
			<rect x="202.194" y="248.614" style="fill:#F0F0F0;" width="2.836" height="2.836"/>
			<rect x="202.194" y="253.368" style="fill:#F0F0F0;" width="2.836" height="2.836"/>
			<rect x="202.194" y="258.122" style="fill:#F0F0F0;" width="2.836" height="2.836"/>
			<rect x="202.194" y="262.876" style="fill:#F0F0F0;" width="2.836" height="2.836"/>
			<rect x="202.194" y="267.63" style="fill:#F0F0F0;" width="2.836" height="2.836"/>
			<rect x="202.194" y="272.384" style="fill:#F0F0F0;" width="2.836" height="2.836"/>
			<rect x="202.194" y="277.138" style="fill:#F0F0F0;" width="2.836" height="2.836"/>
			<rect x="202.194" y="291.4" style="fill:#F0F0F0;" width="2.836" height="2.836"/>
			<rect x="202.194" y="296.154" style="fill:#F0F0F0;" width="2.836" height="2.836"/>
			<rect x="202.194" y="300.908" style="fill:#F0F0F0;" width="2.836" height="2.836"/>
			<rect x="202.194" y="305.662" style="fill:#F0F0F0;" width="2.836" height="2.836"/>
			<rect x="202.194" y="310.417" style="fill:#F0F0F0;" width="2.836" height="2.836"/>
			<rect x="202.194" y="329.433" style="fill:#F0F0F0;" width="2.836" height="2.836"/>
			<rect x="206.698" y="234.352" style="fill:#F0F0F0;" width="2.836" height="2.836"/>
			<rect x="206.698" y="239.106" style="fill:#F0F0F0;" width="2.836" height="2.836"/>
			<rect x="206.698" y="243.86" style="fill:#F0F0F0;" width="2.836" height="2.836"/>
			<rect x="206.698" y="248.614" style="fill:#F0F0F0;" width="2.836" height="2.836"/>
			<rect x="206.698" y="253.368" style="fill:#F0F0F0;" width="2.836" height="2.836"/>
			<rect x="206.698" y="258.122" style="fill:#F0F0F0;" width="2.836" height="2.836"/>
			<rect x="206.698" y="262.876" style="fill:#F0F0F0;" width="2.836" height="2.836"/>
			<rect x="206.698" y="267.63" style="fill:#F0F0F0;" width="2.836" height="2.836"/>
			<rect x="206.698" y="272.384" style="fill:#F0F0F0;" width="2.836" height="2.836"/>
			<rect x="206.698" y="277.138" style="fill:#F0F0F0;" width="2.836" height="2.836"/>
			<rect x="206.698" y="281.892" style="fill:#F0F0F0;" width="2.836" height="2.836"/>
			<rect x="206.698" y="286.646" style="fill:#F0F0F0;" width="2.836" height="2.836"/>
			<rect x="206.698" y="291.4" style="fill:#F0F0F0;" width="2.836" height="2.836"/>
			<rect x="206.698" y="296.154" style="fill:#F0F0F0;" width="2.836" height="2.836"/>
			<rect x="206.698" y="300.908" style="fill:#F0F0F0;" width="2.836" height="2.836"/>
			<rect x="206.698" y="305.662" style="fill:#F0F0F0;" width="2.836" height="2.836"/>
			<rect x="206.698" y="310.417" style="fill:#F0F0F0;" width="2.836" height="2.836"/>
			<rect x="206.698" y="315.171" style="fill:#F0F0F0;" width="2.836" height="2.836"/>
			<rect x="211.202" y="234.352" style="fill:#F0F0F0;" width="2.836" height="2.836"/>
			<rect x="211.202" y="239.106" style="fill:#F0F0F0;" width="2.836" height="2.836"/>
			<rect x="211.202" y="243.86" style="fill:#F0F0F0;" width="2.836" height="2.836"/>
			<rect x="211.202" y="248.614" style="fill:#F0F0F0;" width="2.836" height="2.836"/>
			<rect x="211.202" y="253.368" style="fill:#F0F0F0;" width="2.836" height="2.836"/>
			<rect x="211.202" y="258.122" style="fill:#F0F0F0;" width="2.836" height="2.836"/>
			<rect x="211.202" y="262.876" style="fill:#F0F0F0;" width="2.836" height="2.836"/>
			<rect x="211.202" y="267.63" style="fill:#F0F0F0;" width="2.836" height="2.836"/>
			<rect x="211.202" y="272.384" style="fill:#F0F0F0;" width="2.836" height="2.836"/>
			<rect x="211.202" y="277.138" style="fill:#F0F0F0;" width="2.836" height="2.836"/>
			<rect x="211.202" y="291.4" style="fill:#F0F0F0;" width="2.836" height="2.836"/>
			<rect x="211.202" y="296.154" style="fill:#F0F0F0;" width="2.836" height="2.836"/>
			<rect x="211.202" y="300.908" style="fill:#F0F0F0;" width="2.836" height="2.836"/>
			<rect x="211.202" y="305.662" style="fill:#F0F0F0;" width="2.836" height="2.836"/>
			<rect x="215.705" y="234.352" style="fill:#F0F0F0;" width="2.836" height="2.836"/>
			<rect x="215.705" y="239.106" style="fill:#F0F0F0;" width="2.836" height="2.836"/>
			<rect x="215.705" y="243.86" style="fill:#F0F0F0;" width="2.836" height="2.836"/>
			<rect x="215.705" y="248.614" style="fill:#F0F0F0;" width="2.836" height="2.836"/>
			<rect x="215.705" y="253.368" style="fill:#F0F0F0;" width="2.836" height="2.836"/>
			<rect x="215.705" y="258.122" style="fill:#F0F0F0;" width="2.836" height="2.836"/>
			<rect x="215.705" y="262.876" style="fill:#F0F0F0;" width="2.836" height="2.836"/>
			<rect x="215.705" y="267.63" style="fill:#F0F0F0;" width="2.836" height="2.836"/>
			<rect x="215.705" y="272.384" style="fill:#F0F0F0;" width="2.836" height="2.836"/>
			<rect x="215.705" y="277.138" style="fill:#F0F0F0;" width="2.836" height="2.836"/>
			<rect x="215.705" y="291.4" style="fill:#F0F0F0;" width="2.836" height="2.836"/>
			<rect x="215.705" y="296.154" style="fill:#F0F0F0;" width="2.836" height="2.836"/>
			<rect x="215.705" y="300.908" style="fill:#F0F0F0;" width="2.836" height="2.836"/>
			<rect x="266.415" y="222.008" style="fill:#F0F0F0;" width="2.836" height="2.836"/>
			<rect x="266.415" y="226.762" style="fill:#F0F0F0;" width="2.836" height="2.836"/>
			<rect x="266.415" y="231.516" style="fill:#F0F0F0;" width="2.836" height="2.836"/>
			<rect x="266.415" y="236.27" style="fill:#F0F0F0;" width="2.836" height="2.836"/>
			<rect x="266.415" y="241.024" style="fill:#F0F0F0;" width="2.836" height="2.836"/>
			<rect x="266.415" y="245.778" style="fill:#F0F0F0;" width="2.836" height="2.836"/>
			<rect x="266.415" y="250.532" style="fill:#F0F0F0;" width="2.836" height="2.836"/>
			<rect x="266.415" y="255.286" style="fill:#F0F0F0;" width="2.836" height="2.836"/>
			<rect x="266.415" y="269.548" style="fill:#F0F0F0;" width="2.836" height="2.836"/>
			<rect x="266.415" y="274.302" style="fill:#F0F0F0;" width="2.836" height="2.836"/>
			<rect x="270.919" y="222.008" style="fill:#F0F0F0;" width="2.836" height="2.836"/>
			<rect x="270.919" y="226.762" style="fill:#F0F0F0;" width="2.836" height="2.836"/>
			<rect x="270.919" y="231.516" style="fill:#F0F0F0;" width="2.836" height="2.836"/>
			<rect x="270.919" y="236.27" style="fill:#F0F0F0;" width="2.836" height="2.836"/>
			<rect x="270.919" y="241.024" style="fill:#F0F0F0;" width="2.836" height="2.836"/>
			<rect x="270.919" y="245.778" style="fill:#F0F0F0;" width="2.836" height="2.836"/>
			<rect x="270.919" y="250.532" style="fill:#F0F0F0;" width="2.836" height="2.836"/>
			<rect x="270.919" y="255.286" style="fill:#F0F0F0;" width="2.836" height="2.836"/>
			<rect x="270.919" y="274.302" style="fill:#F0F0F0;" width="2.836" height="2.836"/>
			<rect x="275.423" y="222.008" style="fill:#F0F0F0;" width="2.836" height="2.836"/>
			<rect x="275.423" y="226.762" style="fill:#F0F0F0;" width="2.836" height="2.836"/>
			<rect x="275.423" y="231.516" style="fill:#F0F0F0;" width="2.836" height="2.836"/>
			<rect x="275.423" y="236.27" style="fill:#F0F0F0;" width="2.836" height="2.836"/>
			<rect x="275.423" y="241.024" style="fill:#F0F0F0;" width="2.836" height="2.836"/>
			<rect x="275.423" y="245.778" style="fill:#F0F0F0;" width="2.836" height="2.836"/>
			<rect x="275.423" y="250.532" style="fill:#F0F0F0;" width="2.836" height="2.836"/>
			<rect x="275.423" y="255.286" style="fill:#F0F0F0;" width="2.836" height="2.836"/>
			<rect x="279.927" y="222.008" style="fill:#F0F0F0;" width="2.836" height="2.836"/>
			<rect x="279.927" y="226.762" style="fill:#F0F0F0;" width="2.836" height="2.836"/>
			<rect x="279.927" y="231.516" style="fill:#F0F0F0;" width="2.836" height="2.836"/>
			<rect x="279.927" y="236.27" style="fill:#F0F0F0;" width="2.836" height="2.836"/>
			<rect x="279.927" y="241.024" style="fill:#F0F0F0;" width="2.836" height="2.836"/>
			<rect x="279.927" y="245.778" style="fill:#F0F0F0;" width="2.836" height="2.836"/>
			<rect x="279.927" y="255.286" style="fill:#F0F0F0;" width="2.836" height="2.836"/>
			<rect x="279.927" y="260.04" style="fill:#F0F0F0;" width="2.836" height="2.836"/>
			<rect x="279.927" y="274.302" style="fill:#F0F0F0;" width="2.836" height="2.836"/>
			<rect x="279.927" y="279.056" style="fill:#F0F0F0;" width="2.836" height="2.836"/>
			<rect x="279.927" y="283.811" style="fill:#F0F0F0;" width="2.836" height="2.836"/>
			<rect x="279.927" y="288.565" style="fill:#F0F0F0;" width="2.836" height="2.836"/>
			<rect x="279.927" y="293.319" style="fill:#F0F0F0;" width="2.836" height="2.836"/>
			<rect x="279.927" y="298.073" style="fill:#F0F0F0;" width="2.836" height="2.836"/>
			<rect x="279.927" y="302.827" style="fill:#F0F0F0;" width="2.836" height="2.836"/>
			<rect x="284.431" y="222.008" style="fill:#F0F0F0;" width="2.836" height="2.836"/>
			<rect x="284.431" y="226.762" style="fill:#F0F0F0;" width="2.836" height="2.836"/>
			<rect x="284.431" y="231.516" style="fill:#F0F0F0;" width="2.836" height="2.836"/>
			<rect x="284.431" y="236.27" style="fill:#F0F0F0;" width="2.836" height="2.836"/>
			<rect x="284.431" y="241.024" style="fill:#F0F0F0;" width="2.836" height="2.836"/>
			<rect x="284.431" y="245.778" style="fill:#F0F0F0;" width="2.836" height="2.836"/>
			<rect x="284.431" y="260.04" style="fill:#F0F0F0;" width="2.836" height="2.836"/>
			<rect x="284.431" y="264.794" style="fill:#F0F0F0;" width="2.836" height="2.836"/>
			<rect x="284.431" y="269.548" style="fill:#F0F0F0;" width="2.836" height="2.836"/>
			<rect x="284.431" y="274.302" style="fill:#F0F0F0;" width="2.836" height="2.836"/>
			<rect x="284.431" y="279.056" style="fill:#F0F0F0;" width="2.836" height="2.836"/>
			<rect x="284.431" y="283.811" style="fill:#F0F0F0;" width="2.836" height="2.836"/>
			<rect x="284.431" y="288.565" style="fill:#F0F0F0;" width="2.836" height="2.836"/>
			<rect x="284.431" y="293.319" style="fill:#F0F0F0;" width="2.836" height="2.836"/>
			<rect x="284.431" y="298.073" style="fill:#F0F0F0;" width="2.836" height="2.836"/>
			<rect x="284.431" y="302.827" style="fill:#F0F0F0;" width="2.836" height="2.836"/>
			<rect x="284.431" y="307.581" style="fill:#F0F0F0;" width="2.836" height="2.836"/>
			<rect x="284.431" y="317.089" style="fill:#F0F0F0;" width="2.836" height="2.836"/>
			<rect x="288.934" y="222.008" style="fill:#F0F0F0;" width="2.836" height="2.836"/>
			<rect x="288.934" y="226.762" style="fill:#F0F0F0;" width="2.836" height="2.836"/>
			<rect x="288.934" y="231.516" style="fill:#F0F0F0;" width="2.836" height="2.836"/>
			<rect x="288.934" y="236.27" style="fill:#F0F0F0;" width="2.836" height="2.836"/>
			<rect x="288.934" y="241.024" style="fill:#F0F0F0;" width="2.836" height="2.836"/>
			<rect x="288.934" y="245.778" style="fill:#F0F0F0;" width="2.836" height="2.836"/>
			<rect x="288.934" y="260.04" style="fill:#F0F0F0;" width="2.836" height="2.836"/>
			<rect x="288.934" y="264.794" style="fill:#F0F0F0;" width="2.836" height="2.836"/>
			<rect x="288.934" y="269.548" style="fill:#F0F0F0;" width="2.836" height="2.836"/>
			<rect x="288.934" y="274.302" style="fill:#F0F0F0;" width="2.836" height="2.836"/>
			<rect x="288.934" y="288.565" style="fill:#F0F0F0;" width="2.836" height="2.836"/>
			<rect x="288.934" y="293.319" style="fill:#F0F0F0;" width="2.836" height="2.836"/>
			<rect x="288.934" y="298.073" style="fill:#F0F0F0;" width="2.836" height="2.836"/>
			<rect x="288.934" y="302.827" style="fill:#F0F0F0;" width="2.836" height="2.836"/>
			<rect x="288.934" y="307.581" style="fill:#F0F0F0;" width="2.836" height="2.836"/>
			<rect x="288.934" y="317.089" style="fill:#F0F0F0;" width="2.836" height="2.836"/>
			<rect x="288.934" y="321.843" style="fill:#F0F0F0;" width="2.836" height="2.836"/>
			<rect x="329.803" y="266.212" style="fill:#F0F0F0;" width="2.836" height="2.836"/>
			<rect x="329.803" y="270.966" style="fill:#F0F0F0;" width="2.836" height="2.836"/>
			<rect x="329.803" y="275.72" style="fill:#F0F0F0;" width="2.836" height="2.836"/>
			<rect x="329.803" y="280.474" style="fill:#F0F0F0;" width="2.836" height="2.836"/>
			<rect x="329.803" y="285.228" style="fill:#F0F0F0;" width="2.836" height="2.836"/>
			<rect x="329.803" y="289.983" style="fill:#F0F0F0;" width="2.836" height="2.836"/>
			<rect x="329.803" y="294.737" style="fill:#F0F0F0;" width="2.836" height="2.836"/>
			<rect x="329.803" y="308.999" style="fill:#F0F0F0;" width="2.836" height="2.836"/>
			<rect x="329.803" y="313.753" style="fill:#F0F0F0;" width="2.836" height="2.836"/>
			<rect x="329.803" y="318.507" style="fill:#F0F0F0;" width="2.836" height="2.836"/>
			<rect x="334.306" y="266.212" style="fill:#F0F0F0;" width="2.836" height="2.836"/>
			<rect x="334.306" y="270.966" style="fill:#F0F0F0;" width="2.836" height="2.836"/>
			<rect x="334.306" y="275.72" style="fill:#F0F0F0;" width="2.836" height="2.836"/>
			<rect x="334.306" y="280.474" style="fill:#F0F0F0;" width="2.836" height="2.836"/>
			<rect x="334.306" y="285.228" style="fill:#F0F0F0;" width="2.836" height="2.836"/>
			<rect x="334.306" y="289.983" style="fill:#F0F0F0;" width="2.836" height="2.836"/>
			<rect x="334.306" y="294.737" style="fill:#F0F0F0;" width="2.836" height="2.836"/>
			<rect x="338.81" y="266.212" style="fill:#F0F0F0;" width="2.836" height="2.836"/>
			<rect x="338.81" y="270.966" style="fill:#F0F0F0;" width="2.836" height="2.836"/>
			<rect x="338.81" y="275.72" style="fill:#F0F0F0;" width="2.836" height="2.836"/>
			<rect x="338.81" y="280.474" style="fill:#F0F0F0;" width="2.836" height="2.836"/>
			<rect x="338.81" y="285.228" style="fill:#F0F0F0;" width="2.836" height="2.836"/>
			<rect x="338.81" y="289.983" style="fill:#F0F0F0;" width="2.836" height="2.836"/>
			<rect x="338.81" y="294.737" style="fill:#F0F0F0;" width="2.836" height="2.836"/>
			<rect x="343.314" y="266.212" style="fill:#F0F0F0;" width="2.836" height="2.836"/>
			<rect x="343.314" y="270.966" style="fill:#F0F0F0;" width="2.836" height="2.836"/>
			<rect x="343.314" y="275.72" style="fill:#F0F0F0;" width="2.836" height="2.836"/>
			<rect x="343.314" y="280.474" style="fill:#F0F0F0;" width="2.836" height="2.836"/>
			<rect x="343.314" y="285.228" style="fill:#F0F0F0;" width="2.836" height="2.836"/>
			<rect x="343.314" y="289.983" style="fill:#F0F0F0;" width="2.836" height="2.836"/>
			<rect x="343.314" y="294.737" style="fill:#F0F0F0;" width="2.836" height="2.836"/>
			<rect x="343.314" y="299.491" style="fill:#F0F0F0;" width="2.836" height="2.836"/>
			<rect x="343.314" y="304.245" style="fill:#F0F0F0;" width="2.836" height="2.836"/>
			<rect x="343.314" y="308.999" style="fill:#F0F0F0;" width="2.836" height="2.836"/>
			<rect x="343.314" y="313.753" style="fill:#F0F0F0;" width="2.836" height="2.836"/>
			<rect x="347.818" y="266.212" style="fill:#F0F0F0;" width="2.836" height="2.836"/>
			<rect x="347.818" y="270.966" style="fill:#F0F0F0;" width="2.836" height="2.836"/>
			<rect x="347.818" y="275.72" style="fill:#F0F0F0;" width="2.836" height="2.836"/>
			<rect x="347.818" y="280.474" style="fill:#F0F0F0;" width="2.836" height="2.836"/>
			<rect x="347.818" y="285.228" style="fill:#F0F0F0;" width="2.836" height="2.836"/>
			<rect x="347.818" y="289.983" style="fill:#F0F0F0;" width="2.836" height="2.836"/>
			<rect x="347.818" y="294.737" style="fill:#F0F0F0;" width="2.836" height="2.836"/>
			<rect x="347.818" y="299.491" style="fill:#F0F0F0;" width="2.836" height="2.836"/>
			<rect x="347.818" y="304.245" style="fill:#F0F0F0;" width="2.836" height="2.836"/>
			<rect x="347.818" y="308.999" style="fill:#F0F0F0;" width="2.836" height="2.836"/>
			<rect x="347.818" y="313.753" style="fill:#F0F0F0;" width="2.836" height="2.836"/>
			<rect x="347.818" y="318.507" style="fill:#F0F0F0;" width="2.836" height="2.836"/>
			<rect x="347.818" y="332.769" style="fill:#F0F0F0;" width="2.836" height="2.836"/>
			<rect x="347.818" y="337.523" style="fill:#F0F0F0;" width="2.836" height="2.836"/>
			<rect x="352.322" y="266.212" style="fill:#F0F0F0;" width="2.836" height="2.836"/>
			<rect x="352.322" y="270.966" style="fill:#F0F0F0;" width="2.836" height="2.836"/>
			<rect x="352.322" y="275.72" style="fill:#F0F0F0;" width="2.836" height="2.836"/>
			<rect x="352.322" y="289.983" style="fill:#F0F0F0;" width="2.836" height="2.836"/>
			<rect x="352.322" y="294.737" style="fill:#F0F0F0;" width="2.836" height="2.836"/>
			<rect x="352.322" y="299.491" style="fill:#F0F0F0;" width="2.836" height="2.836"/>
			<rect x="352.322" y="304.245" style="fill:#F0F0F0;" width="2.836" height="2.836"/>
			<rect x="352.322" y="308.999" style="fill:#F0F0F0;" width="2.836" height="2.836"/>
			<rect x="352.322" y="313.753" style="fill:#F0F0F0;" width="2.836" height="2.836"/>
			<rect x="352.322" y="318.507" style="fill:#F0F0F0;" width="2.836" height="2.836"/>
			<rect x="352.322" y="332.769" style="fill:#F0F0F0;" width="2.836" height="2.836"/>
			<rect x="352.322" y="337.523" style="fill:#F0F0F0;" width="2.836" height="2.836"/>
			<rect x="352.322" y="342.277" style="fill:#F0F0F0;" width="2.836" height="2.836"/>
			<rect x="399.529" y="237.688" style="fill:#F0F0F0;" width="2.836" height="2.836"/>
			<rect x="399.529" y="242.442" style="fill:#F0F0F0;" width="2.836" height="2.836"/>
			<rect x="399.529" y="247.196" style="fill:#F0F0F0;" width="2.836" height="2.836"/>
			<rect x="399.529" y="251.95" style="fill:#F0F0F0;" width="2.836" height="2.836"/>
			<rect x="399.529" y="256.704" style="fill:#F0F0F0;" width="2.836" height="2.836"/>
			<rect x="399.529" y="261.458" style="fill:#F0F0F0;" width="2.836" height="2.836"/>
			<rect x="399.529" y="266.212" style="fill:#F0F0F0;" width="2.836" height="2.836"/>
			<rect x="399.529" y="270.966" style="fill:#F0F0F0;" width="2.836" height="2.836"/>
			<rect x="399.529" y="275.72" style="fill:#F0F0F0;" width="2.836" height="2.836"/>
			<rect x="399.529" y="280.474" style="fill:#F0F0F0;" width="2.836" height="2.836"/>
			<rect x="399.529" y="285.228" style="fill:#F0F0F0;" width="2.836" height="2.836"/>
			<rect x="399.529" y="289.983" style="fill:#F0F0F0;" width="2.836" height="2.836"/>
			<rect x="399.529" y="294.737" style="fill:#F0F0F0;" width="2.836" height="2.836"/>
			<rect x="399.529" y="299.491" style="fill:#F0F0F0;" width="2.836" height="2.836"/>
			<rect x="399.529" y="304.245" style="fill:#F0F0F0;" width="2.836" height="2.836"/>
			<rect x="399.529" y="308.999" style="fill:#F0F0F0;" width="2.836" height="2.836"/>
			<rect x="399.529" y="313.753" style="fill:#F0F0F0;" width="2.836" height="2.836"/>
			<rect x="399.529" y="318.507" style="fill:#F0F0F0;" width="2.836" height="2.836"/>
			<rect x="399.529" y="323.261" style="fill:#F0F0F0;" width="2.836" height="2.836"/>
			<rect x="399.529" y="328.015" style="fill:#F0F0F0;" width="2.836" height="2.836"/>
			<rect x="399.529" y="332.769" style="fill:#F0F0F0;" width="2.836" height="2.836"/>
			<rect x="399.529" y="337.523" style="fill:#F0F0F0;" width="2.836" height="2.836"/>
			<rect x="399.529" y="342.277" style="fill:#F0F0F0;" width="2.836" height="2.836"/>
			<rect x="404.033" y="237.688" style="fill:#F0F0F0;" width="2.836" height="2.836"/>
			<rect x="404.033" y="242.442" style="fill:#F0F0F0;" width="2.836" height="2.836"/>
			<rect x="404.033" y="247.196" style="fill:#F0F0F0;" width="2.836" height="2.836"/>
			<rect x="404.033" y="251.95" style="fill:#F0F0F0;" width="2.836" height="2.836"/>
			<rect x="404.033" y="256.704" style="fill:#F0F0F0;" width="2.836" height="2.836"/>
			<rect x="404.033" y="261.458" style="fill:#F0F0F0;" width="2.836" height="2.836"/>
			<rect x="404.033" y="266.212" style="fill:#F0F0F0;" width="2.836" height="2.836"/>
			<rect x="404.033" y="270.966" style="fill:#F0F0F0;" width="2.836" height="2.836"/>
			<rect x="404.033" y="275.72" style="fill:#F0F0F0;" width="2.836" height="2.836"/>
			<rect x="404.033" y="280.474" style="fill:#F0F0F0;" width="2.836" height="2.836"/>
			<rect x="404.033" y="285.228" style="fill:#F0F0F0;" width="2.836" height="2.836"/>
			<rect x="404.033" y="289.983" style="fill:#F0F0F0;" width="2.836" height="2.836"/>
			<rect x="404.033" y="294.737" style="fill:#F0F0F0;" width="2.836" height="2.836"/>
			<rect x="404.033" y="299.491" style="fill:#F0F0F0;" width="2.836" height="2.836"/>
			<rect x="404.033" y="304.245" style="fill:#F0F0F0;" width="2.836" height="2.836"/>
			<rect x="404.033" y="308.999" style="fill:#F0F0F0;" width="2.836" height="2.836"/>
			<rect x="404.033" y="313.753" style="fill:#F0F0F0;" width="2.836" height="2.836"/>
			<rect x="404.033" y="318.507" style="fill:#F0F0F0;" width="2.836" height="2.836"/>
			<rect x="404.033" y="323.261" style="fill:#F0F0F0;" width="2.836" height="2.836"/>
			<rect x="408.536" y="237.688" style="fill:#F0F0F0;" width="2.836" height="2.836"/>
			<rect x="408.536" y="242.442" style="fill:#F0F0F0;" width="2.836" height="2.836"/>
			<rect x="408.536" y="247.196" style="fill:#F0F0F0;" width="2.836" height="2.836"/>
			<rect x="408.536" y="251.95" style="fill:#F0F0F0;" width="2.836" height="2.836"/>
			<rect x="408.536" y="256.704" style="fill:#F0F0F0;" width="2.836" height="2.836"/>
			<rect x="408.536" y="261.458" style="fill:#F0F0F0;" width="2.836" height="2.836"/>
			<rect x="408.536" y="266.212" style="fill:#F0F0F0;" width="2.836" height="2.836"/>
			<rect x="408.536" y="270.966" style="fill:#F0F0F0;" width="2.836" height="2.836"/>
			<rect x="408.536" y="275.72" style="fill:#F0F0F0;" width="2.836" height="2.836"/>
			<rect x="408.536" y="280.474" style="fill:#F0F0F0;" width="2.836" height="2.836"/>
			<rect x="408.536" y="285.228" style="fill:#F0F0F0;" width="2.836" height="2.836"/>
			<rect x="408.536" y="289.983" style="fill:#F0F0F0;" width="2.836" height="2.836"/>
			<rect x="408.536" y="294.737" style="fill:#F0F0F0;" width="2.836" height="2.836"/>
			<rect x="408.536" y="299.491" style="fill:#F0F0F0;" width="2.836" height="2.836"/>
			<rect x="408.536" y="304.245" style="fill:#F0F0F0;" width="2.836" height="2.836"/>
			<rect x="408.536" y="308.999" style="fill:#F0F0F0;" width="2.836" height="2.836"/>
			<rect x="408.536" y="313.753" style="fill:#F0F0F0;" width="2.836" height="2.836"/>
			<rect x="408.536" y="318.507" style="fill:#F0F0F0;" width="2.836" height="2.836"/>
			<rect x="408.536" y="323.261" style="fill:#F0F0F0;" width="2.836" height="2.836"/>
			<rect x="413.04" y="237.688" style="fill:#F0F0F0;" width="2.836" height="2.836"/>
			<rect x="413.04" y="242.442" style="fill:#F0F0F0;" width="2.836" height="2.836"/>
			<rect x="413.04" y="247.196" style="fill:#F0F0F0;" width="2.836" height="2.836"/>
			<rect x="413.04" y="251.95" style="fill:#F0F0F0;" width="2.836" height="2.836"/>
			<rect x="413.04" y="256.704" style="fill:#F0F0F0;" width="2.836" height="2.836"/>
			<rect x="413.04" y="261.458" style="fill:#F0F0F0;" width="2.836" height="2.836"/>
			<rect x="413.04" y="266.212" style="fill:#F0F0F0;" width="2.836" height="2.836"/>
			<rect x="413.04" y="270.966" style="fill:#F0F0F0;" width="2.836" height="2.836"/>
			<rect x="413.04" y="275.72" style="fill:#F0F0F0;" width="2.836" height="2.836"/>
			<rect x="413.04" y="280.474" style="fill:#F0F0F0;" width="2.836" height="2.836"/>
			<rect x="413.04" y="285.228" style="fill:#F0F0F0;" width="2.836" height="2.836"/>
			<rect x="413.04" y="289.983" style="fill:#F0F0F0;" width="2.836" height="2.836"/>
			<rect x="413.04" y="294.737" style="fill:#F0F0F0;" width="2.836" height="2.836"/>
			<rect x="413.04" y="299.491" style="fill:#F0F0F0;" width="2.836" height="2.836"/>
			<rect x="413.04" y="304.245" style="fill:#F0F0F0;" width="2.836" height="2.836"/>
			<rect x="417.544" y="237.688" style="fill:#F0F0F0;" width="2.836" height="2.836"/>
			<rect x="417.544" y="242.442" style="fill:#F0F0F0;" width="2.836" height="2.836"/>
			<rect x="417.544" y="247.196" style="fill:#F0F0F0;" width="2.836" height="2.836"/>
			<rect x="417.544" y="251.95" style="fill:#F0F0F0;" width="2.836" height="2.836"/>
			<rect x="417.544" y="256.704" style="fill:#F0F0F0;" width="2.836" height="2.836"/>
			<rect x="417.544" y="261.458" style="fill:#F0F0F0;" width="2.836" height="2.836"/>
			<rect x="417.544" y="266.212" style="fill:#F0F0F0;" width="2.836" height="2.836"/>
			<rect x="417.544" y="270.966" style="fill:#F0F0F0;" width="2.836" height="2.836"/>
			<rect x="417.544" y="275.72" style="fill:#F0F0F0;" width="2.836" height="2.836"/>
			<rect x="417.544" y="280.474" style="fill:#F0F0F0;" width="2.836" height="2.836"/>
			<rect x="417.544" y="285.228" style="fill:#F0F0F0;" width="2.836" height="2.836"/>
			<rect x="417.544" y="289.983" style="fill:#F0F0F0;" width="2.836" height="2.836"/>
			<rect x="417.544" y="294.737" style="fill:#F0F0F0;" width="2.836" height="2.836"/>
			<rect x="422.048" y="237.688" style="fill:#F0F0F0;" width="2.836" height="2.836"/>
			<rect x="422.048" y="242.442" style="fill:#F0F0F0;" width="2.836" height="2.836"/>
			<rect x="422.048" y="247.196" style="fill:#F0F0F0;" width="2.836" height="2.836"/>
			<rect x="422.048" y="251.95" style="fill:#F0F0F0;" width="2.836" height="2.836"/>
			<rect x="422.048" y="256.704" style="fill:#F0F0F0;" width="2.836" height="2.836"/>
			<rect x="422.048" y="261.458" style="fill:#F0F0F0;" width="2.836" height="2.836"/>
			<rect x="422.048" y="266.212" style="fill:#F0F0F0;" width="2.836" height="2.836"/>
			<rect x="422.048" y="270.966" style="fill:#F0F0F0;" width="2.836" height="2.836"/>
			<rect x="422.048" y="275.72" style="fill:#F0F0F0;" width="2.836" height="2.836"/>
			<rect x="422.048" y="280.474" style="fill:#F0F0F0;" width="2.836" height="2.836"/>
			<rect x="422.048" y="285.228" style="fill:#F0F0F0;" width="2.836" height="2.836"/>
			<rect x="422.048" y="289.983" style="fill:#F0F0F0;" width="2.836" height="2.836"/>
			<rect x="91.099" y="272.384" style="fill:#F0F0F0;" width="2.836" height="2.836"/>
			<rect x="91.099" y="277.138" style="fill:#F0F0F0;" width="2.836" height="2.836"/>
			<rect x="91.099" y="281.892" style="fill:#F0F0F0;" width="2.836" height="2.836"/>
			<rect x="91.099" y="286.646" style="fill:#F0F0F0;" width="2.836" height="2.836"/>
			<rect x="91.099" y="291.4" style="fill:#F0F0F0;" width="2.836" height="2.836"/>
			<rect x="91.099" y="296.154" style="fill:#F0F0F0;" width="2.836" height="2.836"/>
			<rect x="91.099" y="300.908" style="fill:#F0F0F0;" width="2.836" height="2.836"/>
			<rect x="91.099" y="305.662" style="fill:#F0F0F0;" width="2.836" height="2.836"/>
			<rect x="91.099" y="310.417" style="fill:#F0F0F0;" width="2.836" height="2.836"/>
			<rect x="91.099" y="315.171" style="fill:#F0F0F0;" width="2.836" height="2.836"/>
			<rect x="91.099" y="319.925" style="fill:#F0F0F0;" width="2.836" height="2.836"/>
			<rect x="91.099" y="324.679" style="fill:#F0F0F0;" width="2.836" height="2.836"/>
			<rect x="91.099" y="329.433" style="fill:#F0F0F0;" width="2.836" height="2.836"/>
			<rect x="91.099" y="334.187" style="fill:#F0F0F0;" width="2.836" height="2.836"/>
			<rect x="91.099" y="338.941" style="fill:#F0F0F0;" width="2.836" height="2.836"/>
			<rect x="91.099" y="343.695" style="fill:#F0F0F0;" width="2.836" height="2.836"/>
			<rect x="91.099" y="348.449" style="fill:#F0F0F0;" width="2.836" height="2.836"/>
			<rect x="91.099" y="353.203" style="fill:#F0F0F0;" width="2.836" height="2.836"/>
			<rect x="91.099" y="357.957" style="fill:#F0F0F0;" width="2.836" height="2.836"/>
			<rect x="91.099" y="362.711" style="fill:#F0F0F0;" width="2.836" height="2.836"/>
			<rect x="95.603" y="272.384" style="fill:#F0F0F0;" width="2.836" height="2.836"/>
			<rect x="95.603" y="277.138" style="fill:#F0F0F0;" width="2.836" height="2.836"/>
			<rect x="95.603" y="281.892" style="fill:#F0F0F0;" width="2.836" height="2.836"/>
			<rect x="95.603" y="286.646" style="fill:#F0F0F0;" width="2.836" height="2.836"/>
			<rect x="95.603" y="291.4" style="fill:#F0F0F0;" width="2.836" height="2.836"/>
			<rect x="95.603" y="296.154" style="fill:#F0F0F0;" width="2.836" height="2.836"/>
			<rect x="95.603" y="300.908" style="fill:#F0F0F0;" width="2.836" height="2.836"/>
			<rect x="95.603" y="305.662" style="fill:#F0F0F0;" width="2.836" height="2.836"/>
			<rect x="95.603" y="310.417" style="fill:#F0F0F0;" width="2.836" height="2.836"/>
			<rect x="95.603" y="315.171" style="fill:#F0F0F0;" width="2.836" height="2.836"/>
			<rect x="95.603" y="319.925" style="fill:#F0F0F0;" width="2.836" height="2.836"/>
			<rect x="95.603" y="324.679" style="fill:#F0F0F0;" width="2.836" height="2.836"/>
			<rect x="95.603" y="329.433" style="fill:#F0F0F0;" width="2.836" height="2.836"/>
			<rect x="95.603" y="334.187" style="fill:#F0F0F0;" width="2.836" height="2.836"/>
			<rect x="95.603" y="338.941" style="fill:#F0F0F0;" width="2.836" height="2.836"/>
			<rect x="95.603" y="343.695" style="fill:#F0F0F0;" width="2.836" height="2.836"/>
			<rect x="95.603" y="348.449" style="fill:#F0F0F0;" width="2.836" height="2.836"/>
			<rect x="95.603" y="353.203" style="fill:#F0F0F0;" width="2.836" height="2.836"/>
			<rect x="100.107" y="272.384" style="fill:#F0F0F0;" width="2.836" height="2.836"/>
			<rect x="100.107" y="277.138" style="fill:#F0F0F0;" width="2.836" height="2.836"/>
			<rect x="100.107" y="281.892" style="fill:#F0F0F0;" width="2.836" height="2.836"/>
			<rect x="100.107" y="286.646" style="fill:#F0F0F0;" width="2.836" height="2.836"/>
			<rect x="100.107" y="291.4" style="fill:#F0F0F0;" width="2.836" height="2.836"/>
			<rect x="100.107" y="296.154" style="fill:#F0F0F0;" width="2.836" height="2.836"/>
			<rect x="100.107" y="300.908" style="fill:#F0F0F0;" width="2.836" height="2.836"/>
			<rect x="100.107" y="305.662" style="fill:#F0F0F0;" width="2.836" height="2.836"/>
			<rect x="100.107" y="310.417" style="fill:#F0F0F0;" width="2.836" height="2.836"/>
			<rect x="100.107" y="315.171" style="fill:#F0F0F0;" width="2.836" height="2.836"/>
			<rect x="100.107" y="319.925" style="fill:#F0F0F0;" width="2.836" height="2.836"/>
			<rect x="100.107" y="324.679" style="fill:#F0F0F0;" width="2.836" height="2.836"/>
			<rect x="100.107" y="329.433" style="fill:#F0F0F0;" width="2.836" height="2.836"/>
			<rect x="100.107" y="334.187" style="fill:#F0F0F0;" width="2.836" height="2.836"/>
			<rect x="100.107" y="338.941" style="fill:#F0F0F0;" width="2.836" height="2.836"/>
			<rect x="100.107" y="343.695" style="fill:#F0F0F0;" width="2.836" height="2.836"/>
			<rect x="100.107" y="348.449" style="fill:#F0F0F0;" width="2.836" height="2.836"/>
			<rect x="100.107" y="353.203" style="fill:#F0F0F0;" width="2.836" height="2.836"/>
			<rect x="74.251" y="307.081" style="fill:#F0F0F0;" width="2.836" height="2.836"/>
			<rect x="74.251" y="311.835" style="fill:#F0F0F0;" width="2.836" height="2.836"/>
			<rect x="74.251" y="316.589" style="fill:#F0F0F0;" width="2.836" height="2.836"/>
			<rect x="74.251" y="321.343" style="fill:#F0F0F0;" width="2.836" height="2.836"/>
			<rect x="74.251" y="326.097" style="fill:#F0F0F0;" width="2.836" height="2.836"/>
			<rect x="74.251" y="330.851" style="fill:#F0F0F0;" width="2.836" height="2.836"/>
			<rect x="74.251" y="335.605" style="fill:#F0F0F0;" width="2.836" height="2.836"/>
			<rect x="74.251" y="340.359" style="fill:#F0F0F0;" width="2.836" height="2.836"/>
			<rect x="74.251" y="345.113" style="fill:#F0F0F0;" width="2.836" height="2.836"/>
			<rect x="74.251" y="349.867" style="fill:#F0F0F0;" width="2.836" height="2.836"/>
			<rect x="74.251" y="354.621" style="fill:#F0F0F0;" width="2.836" height="2.836"/>
			<rect x="74.251" y="359.375" style="fill:#F0F0F0;" width="2.836" height="2.836"/>
			<rect x="74.251" y="364.129" style="fill:#F0F0F0;" width="2.836" height="2.836"/>
			<rect x="78.755" y="307.081" style="fill:#F0F0F0;" width="2.836" height="2.836"/>
			<rect x="78.755" y="311.835" style="fill:#F0F0F0;" width="2.836" height="2.836"/>
			<rect x="78.755" y="316.589" style="fill:#F0F0F0;" width="2.836" height="2.836"/>
			<rect x="78.755" y="321.343" style="fill:#F0F0F0;" width="2.836" height="2.836"/>
			<rect x="78.755" y="326.097" style="fill:#F0F0F0;" width="2.836" height="2.836"/>
			<rect x="78.755" y="330.851" style="fill:#F0F0F0;" width="2.836" height="2.836"/>
			<rect x="78.755" y="335.605" style="fill:#F0F0F0;" width="2.836" height="2.836"/>
			<rect x="78.755" y="340.359" style="fill:#F0F0F0;" width="2.836" height="2.836"/>
			<rect x="78.755" y="345.113" style="fill:#F0F0F0;" width="2.836" height="2.836"/>
			<rect x="78.755" y="349.867" style="fill:#F0F0F0;" width="2.836" height="2.836"/>
			<rect x="78.755" y="354.621" style="fill:#F0F0F0;" width="2.836" height="2.836"/>
			<rect x="78.755" y="359.375" style="fill:#F0F0F0;" width="2.836" height="2.836"/>
			<rect x="78.755" y="364.129" style="fill:#F0F0F0;" width="2.836" height="2.836"/>
			<rect x="83.259" y="307.081" style="fill:#F0F0F0;" width="2.836" height="2.836"/>
			<rect x="83.259" y="311.835" style="fill:#F0F0F0;" width="2.836" height="2.836"/>
			<rect x="83.259" y="316.589" style="fill:#F0F0F0;" width="2.836" height="2.836"/>
			<rect x="83.259" y="321.343" style="fill:#F0F0F0;" width="2.836" height="2.836"/>
			<rect x="83.259" y="326.097" style="fill:#F0F0F0;" width="2.836" height="2.836"/>
			<rect x="83.259" y="330.851" style="fill:#F0F0F0;" width="2.836" height="2.836"/>
			<rect x="83.259" y="335.605" style="fill:#F0F0F0;" width="2.836" height="2.836"/>
			<rect x="83.259" y="340.359" style="fill:#F0F0F0;" width="2.836" height="2.836"/>
			<rect x="83.259" y="345.113" style="fill:#F0F0F0;" width="2.836" height="2.836"/>
			<rect x="83.259" y="349.867" style="fill:#F0F0F0;" width="2.836" height="2.836"/>
			<rect x="83.259" y="354.621" style="fill:#F0F0F0;" width="2.836" height="2.836"/>
			<rect x="83.259" y="359.375" style="fill:#F0F0F0;" width="2.836" height="2.836"/>
			<rect x="83.259" y="364.129" style="fill:#F0F0F0;" width="2.836" height="2.836"/>
			<rect x="83.259" y="368.883" style="fill:#F0F0F0;" width="2.836" height="2.836"/>
			<rect x="108.28" y="308.498" style="fill:#F0F0F0;" width="2.836" height="2.836"/>
			<rect x="108.28" y="313.252" style="fill:#F0F0F0;" width="2.836" height="2.836"/>
			<rect x="108.28" y="318.007" style="fill:#F0F0F0;" width="2.836" height="2.836"/>
			<rect x="108.28" y="322.76" style="fill:#F0F0F0;" width="2.836" height="2.836"/>
			<rect x="108.28" y="327.514" style="fill:#F0F0F0;" width="2.836" height="2.836"/>
			<rect x="108.28" y="332.269" style="fill:#F0F0F0;" width="2.836" height="2.836"/>
			<rect x="108.28" y="337.023" style="fill:#F0F0F0;" width="2.836" height="2.836"/>
			<rect x="108.28" y="341.777" style="fill:#F0F0F0;" width="2.836" height="2.836"/>
			<rect x="108.28" y="346.531" style="fill:#F0F0F0;" width="2.836" height="2.836"/>
			<rect x="108.28" y="351.285" style="fill:#F0F0F0;" width="2.836" height="2.836"/>
			<rect x="108.28" y="365.547" style="fill:#F0F0F0;" width="2.836" height="2.836"/>
			<rect x="112.784" y="308.498" style="fill:#F0F0F0;" width="2.836" height="2.836"/>
			<rect x="112.784" y="313.252" style="fill:#F0F0F0;" width="2.836" height="2.836"/>
			<rect x="112.784" y="318.007" style="fill:#F0F0F0;" width="2.836" height="2.836"/>
			<rect x="112.784" y="322.76" style="fill:#F0F0F0;" width="2.836" height="2.836"/>
			<rect x="112.784" y="327.514" style="fill:#F0F0F0;" width="2.836" height="2.836"/>
			<rect x="112.784" y="332.269" style="fill:#F0F0F0;" width="2.836" height="2.836"/>
			<rect x="112.784" y="337.023" style="fill:#F0F0F0;" width="2.836" height="2.836"/>
			<rect x="112.784" y="341.777" style="fill:#F0F0F0;" width="2.836" height="2.836"/>
			<rect x="112.784" y="346.531" style="fill:#F0F0F0;" width="2.836" height="2.836"/>
			<rect x="112.784" y="360.793" style="fill:#F0F0F0;" width="2.836" height="2.836"/>
			<rect x="112.784" y="365.547" style="fill:#F0F0F0;" width="2.836" height="2.836"/>
			<rect x="117.288" y="308.498" style="fill:#F0F0F0;" width="2.836" height="2.836"/>
			<rect x="117.288" y="313.252" style="fill:#F0F0F0;" width="2.836" height="2.836"/>
			<rect x="117.288" y="318.007" style="fill:#F0F0F0;" width="2.836" height="2.836"/>
			<rect x="117.288" y="322.76" style="fill:#F0F0F0;" width="2.836" height="2.836"/>
			<rect x="117.288" y="327.514" style="fill:#F0F0F0;" width="2.836" height="2.836"/>
			<rect x="117.288" y="332.269" style="fill:#F0F0F0;" width="2.836" height="2.836"/>
			<rect x="117.288" y="337.023" style="fill:#F0F0F0;" width="2.836" height="2.836"/>
			<rect x="117.288" y="341.777" style="fill:#F0F0F0;" width="2.836" height="2.836"/>
			<rect x="117.288" y="356.039" style="fill:#F0F0F0;" width="2.836" height="2.836"/>
			<rect x="117.288" y="360.793" style="fill:#F0F0F0;" width="2.836" height="2.836"/>
			<rect x="117.288" y="365.547" style="fill:#F0F0F0;" width="2.836" height="2.836"/>
			<rect x="159.157" y="236.27" style="fill:#F0F0F0;" width="2.836" height="2.836"/>
			<rect x="159.157" y="241.024" style="fill:#F0F0F0;" width="2.836" height="2.836"/>
			<rect x="159.157" y="245.778" style="fill:#F0F0F0;" width="2.836" height="2.836"/>
			<rect x="159.157" y="250.532" style="fill:#F0F0F0;" width="2.836" height="2.836"/>
			<rect x="159.157" y="255.286" style="fill:#F0F0F0;" width="2.836" height="2.836"/>
			<rect x="159.157" y="260.04" style="fill:#F0F0F0;" width="2.836" height="2.836"/>
			<rect x="159.157" y="264.794" style="fill:#F0F0F0;" width="2.836" height="2.836"/>
			<rect x="159.157" y="269.548" style="fill:#F0F0F0;" width="2.836" height="2.836"/>
			<rect x="159.157" y="274.302" style="fill:#F0F0F0;" width="2.836" height="2.836"/>
			<rect x="159.157" y="279.056" style="fill:#F0F0F0;" width="2.836" height="2.836"/>
			<rect x="159.157" y="283.811" style="fill:#F0F0F0;" width="2.836" height="2.836"/>
			<rect x="159.157" y="288.565" style="fill:#F0F0F0;" width="2.836" height="2.836"/>
			<rect x="159.157" y="293.319" style="fill:#F0F0F0;" width="2.836" height="2.836"/>
			<rect x="159.157" y="298.073" style="fill:#F0F0F0;" width="2.836" height="2.836"/>
			<rect x="159.157" y="302.827" style="fill:#F0F0F0;" width="2.836" height="2.836"/>
			<rect x="159.157" y="307.581" style="fill:#F0F0F0;" width="2.836" height="2.836"/>
			<rect x="159.157" y="312.335" style="fill:#F0F0F0;" width="2.836" height="2.836"/>
			<rect x="159.157" y="321.843" style="fill:#F0F0F0;" width="2.836" height="2.836"/>
			<rect x="159.157" y="326.597" style="fill:#F0F0F0;" width="2.836" height="2.836"/>
			<rect x="159.157" y="331.351" style="fill:#F0F0F0;" width="2.836" height="2.836"/>
			<rect x="159.157" y="336.105" style="fill:#F0F0F0;" width="2.836" height="2.836"/>
			<rect x="159.157" y="340.859" style="fill:#F0F0F0;" width="2.836" height="2.836"/>
			<rect x="163.661" y="236.27" style="fill:#F0F0F0;" width="2.836" height="2.836"/>
			<rect x="163.661" y="241.024" style="fill:#F0F0F0;" width="2.836" height="2.836"/>
			<rect x="163.661" y="245.778" style="fill:#F0F0F0;" width="2.836" height="2.836"/>
			<rect x="163.661" y="250.532" style="fill:#F0F0F0;" width="2.836" height="2.836"/>
			<rect x="163.661" y="255.286" style="fill:#F0F0F0;" width="2.836" height="2.836"/>
			<rect x="163.661" y="260.04" style="fill:#F0F0F0;" width="2.836" height="2.836"/>
			<rect x="163.661" y="264.794" style="fill:#F0F0F0;" width="2.836" height="2.836"/>
			<rect x="163.661" y="269.548" style="fill:#F0F0F0;" width="2.836" height="2.836"/>
			<rect x="163.661" y="274.302" style="fill:#F0F0F0;" width="2.836" height="2.836"/>
			<rect x="163.661" y="279.056" style="fill:#F0F0F0;" width="2.836" height="2.836"/>
			<rect x="163.661" y="283.811" style="fill:#F0F0F0;" width="2.836" height="2.836"/>
			<rect x="163.661" y="288.565" style="fill:#F0F0F0;" width="2.836" height="2.836"/>
			<rect x="163.661" y="293.319" style="fill:#F0F0F0;" width="2.836" height="2.836"/>
			<rect x="163.661" y="298.073" style="fill:#F0F0F0;" width="2.836" height="2.836"/>
			<rect x="163.661" y="302.827" style="fill:#F0F0F0;" width="2.836" height="2.836"/>
			<rect x="163.661" y="307.581" style="fill:#F0F0F0;" width="2.836" height="2.836"/>
			<rect x="163.661" y="336.105" style="fill:#F0F0F0;" width="2.836" height="2.836"/>
			<rect x="163.661" y="340.859" style="fill:#F0F0F0;" width="2.836" height="2.836"/>
			<rect x="168.165" y="236.27" style="fill:#F0F0F0;" width="2.836" height="2.836"/>
			<rect x="168.165" y="241.024" style="fill:#F0F0F0;" width="2.836" height="2.836"/>
			<rect x="168.165" y="245.778" style="fill:#F0F0F0;" width="2.836" height="2.836"/>
			<rect x="168.165" y="250.532" style="fill:#F0F0F0;" width="2.836" height="2.836"/>
			<rect x="168.165" y="255.286" style="fill:#F0F0F0;" width="2.836" height="2.836"/>
			<rect x="168.165" y="260.04" style="fill:#F0F0F0;" width="2.836" height="2.836"/>
			<rect x="168.165" y="264.794" style="fill:#F0F0F0;" width="2.836" height="2.836"/>
			<rect x="168.165" y="269.548" style="fill:#F0F0F0;" width="2.836" height="2.836"/>
			<rect x="168.165" y="274.302" style="fill:#F0F0F0;" width="2.836" height="2.836"/>
			<rect x="168.165" y="279.056" style="fill:#F0F0F0;" width="2.836" height="2.836"/>
			<rect x="168.165" y="283.811" style="fill:#F0F0F0;" width="2.836" height="2.836"/>
			<rect x="168.165" y="288.565" style="fill:#F0F0F0;" width="2.836" height="2.836"/>
			<rect x="168.165" y="293.319" style="fill:#F0F0F0;" width="2.836" height="2.836"/>
			<rect x="168.165" y="298.073" style="fill:#F0F0F0;" width="2.836" height="2.836"/>
			<rect x="168.165" y="302.827" style="fill:#F0F0F0;" width="2.836" height="2.836"/>
			<rect x="168.165" y="307.581" style="fill:#F0F0F0;" width="2.836" height="2.836"/>
			<rect x="168.165" y="317.089" style="fill:#F0F0F0;" width="2.836" height="2.836"/>
			<rect x="168.165" y="321.843" style="fill:#F0F0F0;" width="2.836" height="2.836"/>
			<rect x="168.165" y="326.597" style="fill:#F0F0F0;" width="2.836" height="2.836"/>
			<rect x="168.165" y="331.351" style="fill:#F0F0F0;" width="2.836" height="2.836"/>
			<rect x="168.165" y="340.859" style="fill:#F0F0F0;" width="2.836" height="2.836"/>
			<rect x="142.81" y="296.154" style="fill:#F0F0F0;" width="2.836" height="2.836"/>
			<rect x="142.81" y="300.908" style="fill:#F0F0F0;" width="2.836" height="2.836"/>
			<rect x="142.81" y="305.662" style="fill:#F0F0F0;" width="2.836" height="2.836"/>
			<rect x="142.81" y="310.417" style="fill:#F0F0F0;" width="2.836" height="2.836"/>
			<rect x="142.81" y="315.171" style="fill:#F0F0F0;" width="2.836" height="2.836"/>
			<rect x="142.81" y="319.925" style="fill:#F0F0F0;" width="2.836" height="2.836"/>
			<rect x="142.81" y="324.679" style="fill:#F0F0F0;" width="2.836" height="2.836"/>
			<rect x="142.81" y="334.187" style="fill:#F0F0F0;" width="2.836" height="2.836"/>
			<rect x="142.81" y="338.941" style="fill:#F0F0F0;" width="2.836" height="2.836"/>
			<rect x="142.81" y="343.695" style="fill:#F0F0F0;" width="2.836" height="2.836"/>
			<rect x="142.81" y="348.449" style="fill:#F0F0F0;" width="2.836" height="2.836"/>
			<rect x="142.81" y="353.203" style="fill:#F0F0F0;" width="2.836" height="2.836"/>
			<rect x="142.81" y="357.957" style="fill:#F0F0F0;" width="2.836" height="2.836"/>
			<rect x="142.81" y="362.711" style="fill:#F0F0F0;" width="2.836" height="2.836"/>
			<rect x="142.81" y="367.465" style="fill:#F0F0F0;" width="2.836" height="2.836"/>
			<rect x="147.314" y="296.154" style="fill:#F0F0F0;" width="2.836" height="2.836"/>
			<rect x="147.314" y="300.908" style="fill:#F0F0F0;" width="2.836" height="2.836"/>
			<rect x="147.314" y="305.662" style="fill:#F0F0F0;" width="2.836" height="2.836"/>
			<rect x="147.314" y="310.417" style="fill:#F0F0F0;" width="2.836" height="2.836"/>
			<rect x="147.314" y="315.171" style="fill:#F0F0F0;" width="2.836" height="2.836"/>
			<rect x="147.314" y="319.925" style="fill:#F0F0F0;" width="2.836" height="2.836"/>
			<rect x="147.314" y="334.187" style="fill:#F0F0F0;" width="2.836" height="2.836"/>
			<rect x="147.314" y="338.941" style="fill:#F0F0F0;" width="2.836" height="2.836"/>
			<rect x="147.314" y="343.695" style="fill:#F0F0F0;" width="2.836" height="2.836"/>
			<rect x="147.314" y="348.449" style="fill:#F0F0F0;" width="2.836" height="2.836"/>
			<rect x="147.314" y="353.203" style="fill:#F0F0F0;" width="2.836" height="2.836"/>
			<rect x="147.314" y="357.957" style="fill:#F0F0F0;" width="2.836" height="2.836"/>
			<rect x="147.314" y="362.711" style="fill:#F0F0F0;" width="2.836" height="2.836"/>
			<rect x="147.314" y="367.465" style="fill:#F0F0F0;" width="2.836" height="2.836"/>
			<rect x="151.818" y="296.154" style="fill:#F0F0F0;" width="2.836" height="2.836"/>
			<rect x="151.818" y="300.908" style="fill:#F0F0F0;" width="2.836" height="2.836"/>
			<rect x="151.818" y="305.662" style="fill:#F0F0F0;" width="2.836" height="2.836"/>
			<rect x="151.818" y="310.417" style="fill:#F0F0F0;" width="2.836" height="2.836"/>
			<rect x="151.818" y="315.171" style="fill:#F0F0F0;" width="2.836" height="2.836"/>
			<rect x="151.818" y="319.925" style="fill:#F0F0F0;" width="2.836" height="2.836"/>
			<rect x="151.818" y="329.433" style="fill:#F0F0F0;" width="2.836" height="2.836"/>
			<rect x="151.818" y="334.187" style="fill:#F0F0F0;" width="2.836" height="2.836"/>
			<rect x="151.818" y="338.941" style="fill:#F0F0F0;" width="2.836" height="2.836"/>
			<rect x="151.818" y="343.695" style="fill:#F0F0F0;" width="2.836" height="2.836"/>
			<rect x="151.818" y="348.449" style="fill:#F0F0F0;" width="2.836" height="2.836"/>
			<rect x="151.818" y="353.203" style="fill:#F0F0F0;" width="2.836" height="2.836"/>
			<rect x="151.818" y="357.957" style="fill:#F0F0F0;" width="2.836" height="2.836"/>
			<rect x="151.818" y="362.711" style="fill:#F0F0F0;" width="2.836" height="2.836"/>
			<rect x="151.818" y="367.465" style="fill:#F0F0F0;" width="2.836" height="2.836"/>
			<rect x="246.732" y="269.548" style="fill:#F0F0F0;" width="2.836" height="2.836"/>
			<rect x="246.732" y="274.302" style="fill:#F0F0F0;" width="2.836" height="2.836"/>
			<rect x="246.732" y="279.056" style="fill:#F0F0F0;" width="2.836" height="2.836"/>
			<rect x="246.732" y="283.811" style="fill:#F0F0F0;" width="2.836" height="2.836"/>
			<rect x="246.732" y="288.565" style="fill:#F0F0F0;" width="2.836" height="2.836"/>
			<rect x="246.732" y="293.319" style="fill:#F0F0F0;" width="2.836" height="2.836"/>
			<rect x="246.732" y="298.073" style="fill:#F0F0F0;" width="2.836" height="2.836"/>
			<rect x="246.732" y="302.827" style="fill:#F0F0F0;" width="2.836" height="2.836"/>
			<rect x="246.732" y="307.581" style="fill:#F0F0F0;" width="2.836" height="2.836"/>
			<rect x="246.732" y="312.335" style="fill:#F0F0F0;" width="2.836" height="2.836"/>
			<rect x="246.732" y="317.089" style="fill:#F0F0F0;" width="2.836" height="2.836"/>
			<rect x="246.732" y="321.843" style="fill:#F0F0F0;" width="2.836" height="2.836"/>
			<rect x="246.732" y="326.597" style="fill:#F0F0F0;" width="2.836" height="2.836"/>
			<rect x="246.732" y="336.105" style="fill:#F0F0F0;" width="2.836" height="2.836"/>
			<rect x="246.732" y="340.859" style="fill:#F0F0F0;" width="2.836" height="2.836"/>
			<rect x="246.732" y="345.613" style="fill:#F0F0F0;" width="2.836" height="2.836"/>
			<rect x="246.732" y="350.367" style="fill:#F0F0F0;" width="2.836" height="2.836"/>
			<rect x="246.732" y="359.875" style="fill:#F0F0F0;" width="2.836" height="2.836"/>
			<rect x="246.732" y="364.629" style="fill:#F0F0F0;" width="2.836" height="2.836"/>
			<rect x="246.732" y="369.384" style="fill:#F0F0F0;" width="2.836" height="2.836"/>
			<rect x="251.236" y="269.548" style="fill:#F0F0F0;" width="2.836" height="2.836"/>
			<rect x="251.236" y="274.302" style="fill:#F0F0F0;" width="2.836" height="2.836"/>
			<rect x="251.236" y="279.056" style="fill:#F0F0F0;" width="2.836" height="2.836"/>
			<rect x="251.236" y="283.811" style="fill:#F0F0F0;" width="2.836" height="2.836"/>
			<rect x="251.236" y="288.565" style="fill:#F0F0F0;" width="2.836" height="2.836"/>
			<rect x="251.236" y="293.319" style="fill:#F0F0F0;" width="2.836" height="2.836"/>
			<rect x="251.236" y="298.073" style="fill:#F0F0F0;" width="2.836" height="2.836"/>
			<rect x="251.236" y="302.827" style="fill:#F0F0F0;" width="2.836" height="2.836"/>
			<rect x="251.236" y="307.581" style="fill:#F0F0F0;" width="2.836" height="2.836"/>
			<rect x="251.236" y="312.335" style="fill:#F0F0F0;" width="2.836" height="2.836"/>
			<rect x="251.236" y="317.089" style="fill:#F0F0F0;" width="2.836" height="2.836"/>
			<rect x="251.236" y="321.843" style="fill:#F0F0F0;" width="2.836" height="2.836"/>
			<rect x="251.236" y="326.597" style="fill:#F0F0F0;" width="2.836" height="2.836"/>
			<rect x="251.236" y="340.859" style="fill:#F0F0F0;" width="2.836" height="2.836"/>
			<rect x="251.236" y="345.613" style="fill:#F0F0F0;" width="2.836" height="2.836"/>
			<rect x="251.236" y="355.121" style="fill:#F0F0F0;" width="2.836" height="2.836"/>
			<rect x="251.236" y="359.875" style="fill:#F0F0F0;" width="2.836" height="2.836"/>
			<rect x="251.236" y="364.629" style="fill:#F0F0F0;" width="2.836" height="2.836"/>
			<rect x="251.236" y="369.384" style="fill:#F0F0F0;" width="2.836" height="2.836"/>
			<rect x="255.74" y="269.548" style="fill:#F0F0F0;" width="2.836" height="2.836"/>
			<rect x="255.74" y="274.302" style="fill:#F0F0F0;" width="2.836" height="2.836"/>
			<rect x="255.74" y="279.056" style="fill:#F0F0F0;" width="2.836" height="2.836"/>
			<rect x="255.74" y="283.811" style="fill:#F0F0F0;" width="2.836" height="2.836"/>
			<rect x="255.74" y="288.565" style="fill:#F0F0F0;" width="2.836" height="2.836"/>
			<rect x="255.74" y="293.319" style="fill:#F0F0F0;" width="2.836" height="2.836"/>
			<rect x="255.74" y="298.073" style="fill:#F0F0F0;" width="2.836" height="2.836"/>
			<rect x="255.74" y="302.827" style="fill:#F0F0F0;" width="2.836" height="2.836"/>
			<rect x="255.74" y="307.581" style="fill:#F0F0F0;" width="2.836" height="2.836"/>
			<rect x="255.74" y="312.335" style="fill:#F0F0F0;" width="2.836" height="2.836"/>
			<rect x="255.74" y="317.089" style="fill:#F0F0F0;" width="2.836" height="2.836"/>
			<rect x="255.74" y="321.843" style="fill:#F0F0F0;" width="2.836" height="2.836"/>
			<rect x="255.74" y="326.597" style="fill:#F0F0F0;" width="2.836" height="2.836"/>
			<rect x="255.74" y="331.351" style="fill:#F0F0F0;" width="2.836" height="2.836"/>
			<rect x="255.74" y="340.859" style="fill:#F0F0F0;" width="2.836" height="2.836"/>
			<rect x="255.74" y="350.367" style="fill:#F0F0F0;" width="2.836" height="2.836"/>
			<rect x="255.74" y="355.121" style="fill:#F0F0F0;" width="2.836" height="2.836"/>
			<rect x="255.74" y="359.875" style="fill:#F0F0F0;" width="2.836" height="2.836"/>
			<rect x="255.74" y="364.629" style="fill:#F0F0F0;" width="2.836" height="2.836"/>
			<rect x="255.74" y="369.384" style="fill:#F0F0F0;" width="2.836" height="2.836"/>
			<rect x="228.383" y="296.655" style="fill:#F0F0F0;" width="2.836" height="2.836"/>
			<rect x="228.383" y="301.409" style="fill:#F0F0F0;" width="2.836" height="2.836"/>
			<rect x="228.383" y="306.163" style="fill:#F0F0F0;" width="2.836" height="2.836"/>
			<rect x="228.383" y="310.917" style="fill:#F0F0F0;" width="2.836" height="2.836"/>
			<rect x="228.383" y="315.671" style="fill:#F0F0F0;" width="2.836" height="2.836"/>
			<rect x="228.383" y="320.425" style="fill:#F0F0F0;" width="2.836" height="2.836"/>
			<rect x="228.383" y="334.687" style="fill:#F0F0F0;" width="2.836" height="2.836"/>
			<rect x="228.383" y="339.441" style="fill:#F0F0F0;" width="2.836" height="2.836"/>
			<rect x="228.383" y="344.195" style="fill:#F0F0F0;" width="2.836" height="2.836"/>
			<rect x="228.383" y="348.95" style="fill:#F0F0F0;" width="2.836" height="2.836"/>
			<rect x="228.383" y="353.704" style="fill:#F0F0F0;" width="2.836" height="2.836"/>
			<rect x="228.383" y="358.458" style="fill:#F0F0F0;" width="2.836" height="2.836"/>
			<rect x="228.383" y="363.212" style="fill:#F0F0F0;" width="2.836" height="2.836"/>
			<rect x="232.887" y="296.655" style="fill:#F0F0F0;" width="2.836" height="2.836"/>
			<rect x="232.887" y="301.409" style="fill:#F0F0F0;" width="2.836" height="2.836"/>
			<rect x="232.887" y="306.163" style="fill:#F0F0F0;" width="2.836" height="2.836"/>
			<rect x="232.887" y="310.917" style="fill:#F0F0F0;" width="2.836" height="2.836"/>
			<rect x="232.887" y="315.671" style="fill:#F0F0F0;" width="2.836" height="2.836"/>
			<rect x="232.887" y="320.425" style="fill:#F0F0F0;" width="2.836" height="2.836"/>
			<rect x="232.887" y="334.687" style="fill:#F0F0F0;" width="2.836" height="2.836"/>
			<rect x="232.887" y="339.441" style="fill:#F0F0F0;" width="2.836" height="2.836"/>
			<rect x="232.887" y="344.195" style="fill:#F0F0F0;" width="2.836" height="2.836"/>
			<rect x="232.887" y="348.95" style="fill:#F0F0F0;" width="2.836" height="2.836"/>
			<rect x="232.887" y="353.704" style="fill:#F0F0F0;" width="2.836" height="2.836"/>
			<rect x="232.887" y="358.458" style="fill:#F0F0F0;" width="2.836" height="2.836"/>
			<rect x="232.887" y="367.966" style="fill:#F0F0F0;" width="2.836" height="2.836"/>
			<rect x="382.514" y="275.72" style="fill:#F0F0F0;" width="2.836" height="2.836"/>
			<rect x="382.514" y="280.474" style="fill:#F0F0F0;" width="2.836" height="2.836"/>
			<rect x="382.514" y="285.228" style="fill:#F0F0F0;" width="2.836" height="2.836"/>
			<rect x="382.514" y="289.983" style="fill:#F0F0F0;" width="2.836" height="2.836"/>
			<rect x="382.514" y="294.737" style="fill:#F0F0F0;" width="2.836" height="2.836"/>
			<rect x="382.514" y="299.491" style="fill:#F0F0F0;" width="2.836" height="2.836"/>
			<rect x="382.514" y="304.245" style="fill:#F0F0F0;" width="2.836" height="2.836"/>
			<rect x="382.514" y="308.999" style="fill:#F0F0F0;" width="2.836" height="2.836"/>
			<rect x="382.514" y="313.753" style="fill:#F0F0F0;" width="2.836" height="2.836"/>
			<rect x="382.514" y="318.507" style="fill:#F0F0F0;" width="2.836" height="2.836"/>
			<rect x="382.514" y="323.261" style="fill:#F0F0F0;" width="2.836" height="2.836"/>
			<rect x="382.514" y="332.769" style="fill:#F0F0F0;" width="2.836" height="2.836"/>
			<rect x="382.514" y="337.523" style="fill:#F0F0F0;" width="2.836" height="2.836"/>
			<rect x="382.514" y="342.277" style="fill:#F0F0F0;" width="2.836" height="2.836"/>
			<rect x="382.514" y="347.031" style="fill:#F0F0F0;" width="2.836" height="2.836"/>
			<rect x="382.514" y="351.785" style="fill:#F0F0F0;" width="2.836" height="2.836"/>
			<rect x="382.514" y="356.539" style="fill:#F0F0F0;" width="2.836" height="2.836"/>
			<rect x="382.514" y="361.293" style="fill:#F0F0F0;" width="2.836" height="2.836"/>
			<rect x="382.514" y="366.047" style="fill:#F0F0F0;" width="2.836" height="2.836"/>
			<rect x="387.018" y="275.72" style="fill:#F0F0F0;" width="2.836" height="2.836"/>
			<rect x="387.018" y="280.474" style="fill:#F0F0F0;" width="2.836" height="2.836"/>
			<rect x="387.018" y="285.228" style="fill:#F0F0F0;" width="2.836" height="2.836"/>
			<rect x="387.018" y="289.983" style="fill:#F0F0F0;" width="2.836" height="2.836"/>
			<rect x="387.018" y="294.737" style="fill:#F0F0F0;" width="2.836" height="2.836"/>
			<rect x="387.018" y="299.491" style="fill:#F0F0F0;" width="2.836" height="2.836"/>
			<rect x="387.018" y="304.245" style="fill:#F0F0F0;" width="2.836" height="2.836"/>
			<rect x="387.018" y="308.999" style="fill:#F0F0F0;" width="2.836" height="2.836"/>
			<rect x="387.018" y="313.753" style="fill:#F0F0F0;" width="2.836" height="2.836"/>
			<rect x="387.018" y="318.507" style="fill:#F0F0F0;" width="2.836" height="2.836"/>
			<rect x="387.018" y="323.261" style="fill:#F0F0F0;" width="2.836" height="2.836"/>
			<rect x="387.018" y="328.015" style="fill:#F0F0F0;" width="2.836" height="2.836"/>
			<rect x="387.018" y="332.769" style="fill:#F0F0F0;" width="2.836" height="2.836"/>
			<rect x="387.018" y="337.523" style="fill:#F0F0F0;" width="2.836" height="2.836"/>
			<rect x="387.018" y="342.277" style="fill:#F0F0F0;" width="2.836" height="2.836"/>
			<rect x="387.018" y="347.031" style="fill:#F0F0F0;" width="2.836" height="2.836"/>
			<rect x="387.018" y="351.785" style="fill:#F0F0F0;" width="2.836" height="2.836"/>
			<rect x="387.018" y="356.539" style="fill:#F0F0F0;" width="2.836" height="2.836"/>
			<rect x="387.018" y="361.293" style="fill:#F0F0F0;" width="2.836" height="2.836"/>
			<rect x="387.018" y="366.047" style="fill:#F0F0F0;" width="2.836" height="2.836"/>
			<rect x="360.329" y="294.236" style="fill:#F0F0F0;" width="2.836" height="2.836"/>
			<rect x="360.329" y="298.99" style="fill:#F0F0F0;" width="2.836" height="2.836"/>
			<rect x="360.329" y="303.744" style="fill:#F0F0F0;" width="2.836" height="2.836"/>
			<rect x="360.329" y="308.498" style="fill:#F0F0F0;" width="2.836" height="2.836"/>
			<rect x="360.329" y="313.252" style="fill:#F0F0F0;" width="2.836" height="2.836"/>
			<rect x="360.329" y="318.007" style="fill:#F0F0F0;" width="2.836" height="2.836"/>
			<rect x="360.329" y="322.76" style="fill:#F0F0F0;" width="2.836" height="2.836"/>
			<rect x="360.329" y="327.514" style="fill:#F0F0F0;" width="2.836" height="2.836"/>
			<rect x="360.329" y="332.269" style="fill:#F0F0F0;" width="2.836" height="2.836"/>
			<rect x="360.329" y="337.023" style="fill:#F0F0F0;" width="2.836" height="2.836"/>
			<rect x="364.832" y="294.236" style="fill:#F0F0F0;" width="2.836" height="2.836"/>
			<rect x="364.832" y="298.99" style="fill:#F0F0F0;" width="2.836" height="2.836"/>
			<rect x="364.832" y="303.744" style="fill:#F0F0F0;" width="2.836" height="2.836"/>
			<rect x="364.832" y="308.498" style="fill:#F0F0F0;" width="2.836" height="2.836"/>
			<rect x="364.832" y="313.252" style="fill:#F0F0F0;" width="2.836" height="2.836"/>
			<rect x="364.832" y="318.007" style="fill:#F0F0F0;" width="2.836" height="2.836"/>
			<rect x="364.832" y="322.76" style="fill:#F0F0F0;" width="2.836" height="2.836"/>
			<rect x="364.832" y="327.514" style="fill:#F0F0F0;" width="2.836" height="2.836"/>
			<rect x="364.832" y="332.269" style="fill:#F0F0F0;" width="2.836" height="2.836"/>
		</g>
		<path style="fill:#F0F0F0;" d="M147.139,180.529c0-4.869-3.948-8.817-8.817-8.817c-0.88,0-1.729,0.133-2.532,0.373
			c0.128-0.884,0.198-1.787,0.198-2.707c0-10.312-8.359-18.671-18.671-18.671c-1.175,0-2.324,0.114-3.439,0.322
			c-2.87-4.697-8.028-7.842-13.935-7.842c-8.94,0-16.192,7.183-16.325,16.092c-0.091-0.002-0.18-0.014-0.272-0.014
			c-8.307,0-15.041,6.734-15.041,15.041s6.734,15.04,15.041,15.04h55.235l-0.011-0.012
			C143.324,189.201,147.139,185.315,147.139,180.529z"/>
		<path style="fill:#F0F0F0;" d="M218.871,164.676c0-3.109,2.52-5.63,5.629-5.63c0.562,0,1.104,0.085,1.617,0.238
			c-0.082-0.564-0.126-1.141-0.126-1.728c0-6.584,5.337-11.921,11.921-11.921c0.751,0,1.484,0.073,2.196,0.205
			c1.832-2.999,5.126-5.007,8.897-5.007c5.708,0,10.338,4.586,10.423,10.274c0.058-0.001,0.115-0.009,0.173-0.009
			c5.304,0,9.603,4.299,9.603,9.603c0,5.304-4.299,9.603-9.603,9.603h-35.266l0.007-0.008
			C221.307,170.213,218.871,167.732,218.871,164.676z"/>
		<path style="fill:#F0F0F0;" d="M382.312,178.687c0-3.109,2.52-5.629,5.629-5.629c0.562,0,1.104,0.085,1.616,0.238
			c-0.082-0.564-0.126-1.141-0.126-1.728c0-6.584,5.337-11.921,11.921-11.921c0.75,0,1.484,0.073,2.196,0.205
			c1.832-2.999,5.126-5.007,8.897-5.007c5.708,0,10.338,4.586,10.423,10.274c0.058-0.001,0.115-0.009,0.173-0.009
			c5.304,0,9.603,4.299,9.603,9.603c0,5.304-4.299,9.603-9.603,9.603h-35.266l0.007-0.008
			C384.748,184.224,382.312,181.742,382.312,178.687z"/>
		<path style="fill:#F0F0F0;" d="M157.919,108.459c0-1.905,1.544-3.448,3.448-3.448c0.344,0,0.676,0.052,0.99,0.146
			c-0.05-0.346-0.077-0.699-0.077-1.059c0-4.033,3.269-7.303,7.303-7.303c0.46,0,0.909,0.045,1.345,0.126
			c1.122-1.837,3.14-3.067,5.45-3.067c3.497,0,6.333,2.81,6.385,6.294c0.036-0.001,0.07-0.005,0.106-0.005
			c3.249,0,5.883,2.634,5.883,5.883c0,3.249-2.634,5.883-5.883,5.883h-21.604l0.004-0.005
			C159.412,111.851,157.919,110.331,157.919,108.459z"/>
		<path style="fill:#F0F0F0;" d="M304.872,110.976c0-1.905,1.544-3.449,3.448-3.449c0.344,0,0.676,0.052,0.99,0.146
			c-0.05-0.346-0.077-0.699-0.077-1.059c0-4.033,3.27-7.302,7.303-7.302c0.46,0,0.909,0.045,1.345,0.126
			c1.122-1.837,3.14-3.067,5.45-3.067c3.497,0,6.333,2.809,6.385,6.294c0.036-0.001,0.07-0.005,0.106-0.005
			c3.249,0,5.883,2.634,5.883,5.883c0,3.249-2.634,5.883-5.883,5.883h-21.604l0.004-0.005
			C306.364,114.367,304.872,112.847,304.872,110.976z"/>
	</g>
</g>
<g id="Background_Simple" style="display:none;">
	<g style="display:inline;">
		<path style="fill:#407BFF;" d="M92.848,108.386c27.919-59.449,127.059-51.062,165.317-9.255
			c38.258,41.806,50.696,68.599,85.208,52.983c34.512-15.616,78.518-11.44,81.043,38.164s-37.913,108.263-102.09,125.615
			c-64.177,17.352-64.161,78.759-149.1,66.368c-46.31-6.756-47.365-56.86-40.825-98.301S60.47,177.33,92.848,108.386z"/>
		<path style="opacity:0.9;fill:#FFFFFF;" d="M92.848,108.386c27.919-59.449,127.059-51.062,165.317-9.255
			c38.258,41.806,50.696,68.599,85.208,52.983c34.512-15.616,78.518-11.44,81.043,38.164s-37.913,108.263-102.09,125.615
			c-64.177,17.352-64.161,78.759-149.1,66.368c-46.31-6.756-47.365-56.86-40.825-98.301S60.47,177.33,92.848,108.386z"/>
	</g>
</g>
<g id="Shadow_1_">
	<ellipse id="_x3C_Path_x3E__359_" style="fill:#F5F5F5;" cx="250" cy="416.238" rx="193.889" ry="11.323"/>
</g>
<g id="Chart">
	<g>
		<g>
			<g>
				<g>
					<rect x="73.277" y="229.221" style="fill:#407BFF;" width="11.943" height="172.291"/>
				</g>
				<g>
					<rect x="96.246" y="265.728" style="fill:#407BFF;" width="11.943" height="135.784"/>
				</g>
				<g>
					<rect x="119.216" y="294.219" style="fill:#407BFF;" width="11.943" height="107.294"/>
				</g>
				<g>
					<rect x="142.185" y="319.453" style="fill:#407BFF;" width="11.943" height="82.06"/>
				</g>
				<g>
					<rect x="165.155" y="341.516" style="fill:#407BFF;" width="11.943" height="59.996"/>
				</g>
				<g>
					<rect x="188.124" y="357.481" style="fill:#407BFF;" width="11.943" height="44.032"/>
				</g>
				<g>
					<rect x="211.093" y="370.601" style="fill:#407BFF;" width="11.943" height="30.912"/>
				</g>
			</g>
			<g style="opacity:0.7;">
				<g>
					<rect x="73.277" y="229.221" style="fill:#FFFFFF;" width="11.943" height="172.291"/>
				</g>
				<g>
					<rect x="96.246" y="265.728" style="fill:#FFFFFF;" width="11.943" height="135.784"/>
				</g>
				<g>
					<rect x="119.216" y="294.219" style="fill:#FFFFFF;" width="11.943" height="107.294"/>
				</g>
				<g>
					<rect x="142.185" y="319.453" style="fill:#FFFFFF;" width="11.943" height="82.06"/>
				</g>
				<g>
					<rect x="165.155" y="341.516" style="fill:#FFFFFF;" width="11.943" height="59.996"/>
				</g>
				<g>
					<rect x="188.124" y="357.481" style="fill:#FFFFFF;" width="11.943" height="44.032"/>
				</g>
				<g>
					<rect x="211.093" y="370.601" style="fill:#FFFFFF;" width="11.943" height="30.912"/>
				</g>
			</g>
		</g>
		<g>
			<g>
				<polygon style="fill:#407BFF;" points="71.624,182.601 69.21,196.09 82.685,190.691 				"/>
			</g>
			<path style="fill:none;stroke:#407BFF;stroke-width:8;stroke-miterlimit:10;" d="M75.453,192.589
				c0,0,45.627,122.081,166.278,179.63"/>
		</g>
	</g>
</g>
<g id="Rock">
	<g>
		<path style="fill:#407BFF;" d="M358.356,405.379c0,0-7.951-15.517-5.952-17.037c1.999-1.52,5.948,12.964,5.952,11.837
			c0.004-1.126-0.222-20.856,3.451-20.074c3.673,0.782,0,18.948,0,18.948s4.943-9.282,6.879-8.581
			c1.937,0.701-5.712,11.74-5.712,11.74s4.566-2.762,5.712-2.548c1.146,0.213-5.712,5.716-5.712,5.716H358.356z"/>
		<path style="fill:#407BFF;" d="M143.663,409.733c0,0,7.951-15.517,5.952-17.037c-1.999-1.52-5.948,12.964-5.952,11.837
			c-0.003-1.126,0.222-20.856-3.451-20.074c-3.673,0.782,0,18.948,0,18.948s-6.876-13.114-8.7-9.77
			c-1.583,2.901,7.532,12.929,7.532,12.929s-9.066-6.139-9.115-3.434c-0.052,2.901,9.115,6.602,9.115,6.602H143.663z"/>
		<path style="fill:#407BFF;" d="M265.58,396.679c0,0-7.547-9.385-4.65-10.246c2.898-0.862,4.886,6.948,5.401,5.915
			c0.515-1.033,0.176-11.349,5-9.8c4.824,1.549-1.797,10.356-1.797,10.356s4.351-3.329,5.524-2.485
			c1.173,0.843-5.229,6.998-5.229,6.998L265.58,396.679z"/>
		<path style="fill:#407BFF;" d="M196.457,385.15c0,0,5.106-10.907,2.087-11.057c-3.02-0.15-3.999,8.296-3.999,8.296
			s-1.708-11.317-6.229-9.752c-4.788,1.658,3.46,10.582,3.46,10.582s-7.912-5.011-8.439-2.242
			c-0.647,3.398,10.238,5.429,10.238,5.429L196.457,385.15z"/>
		<polygon style="fill:#263238;" points="116.532,416.914 385.885,416.914 374.809,404.915 294.573,396.47 266.507,396.47 
			246.238,380.051 193.6,384.337 150.374,400.543 141.478,408.742 127.672,408.742 		"/>
		<polygon style="opacity:0.5;fill:#FFFFFF;" points="116.532,416.914 385.885,416.914 374.809,404.915 294.573,396.47 
			266.507,396.47 246.238,380.051 193.6,384.337 150.374,400.543 141.478,408.742 127.672,408.742 		"/>
		<polygon style="opacity:0.2;" points="141.478,408.742 169.828,413.568 185.182,413.568 167.775,410.555 150.374,400.543 		"/>
		<polygon style="opacity:0.2;" points="266.507,396.47 251.209,396.47 226.589,405.242 239.248,392.73 257.543,389.208 		"/>
		<polygon style="opacity:0.2;" points="374.809,404.915 345.797,413.568 320.606,407.056 343.032,416.914 385.885,416.914 		"/>
	</g>
</g>
<g id="Character">
	<g>
		<polygon style="fill:#E4897B;" points="236.598,386.581 229.594,384.602 232.19,367.822 239.193,369.801 		"/>
		<path style="fill:#263238;" d="M229.435,378.727h8.873c0.298,0,0.557,0.207,0.625,0.497l1.502,6.469
			c0.156,0.671-0.365,1.306-1.053,1.294c-2.855-0.049-4.94-0.216-8.536-0.216c-2.212,0-8.881,0.23-11.936,0.23
			c-2.988,0-3.484-3.021-2.236-3.294c5.595-1.227,9.804-2.918,11.583-4.532C228.579,378.884,229,378.727,229.435,378.727z"/>
		<polygon style="fill:#E4897B;" points="349.632,406.034 342.51,407.532 337.02,391.464 344.142,389.966 		"/>
		<path style="fill:#263238;" d="M287.287,247.29c0,0-33.248,36.678-42.233,51.191c-8.985,14.513-16.808,75.903-16.808,75.903
			l13.248,3.199c0,0,15.399-59.856,19.5-65.85c4.102-5.995,47.642-46.624,47.642-46.624L287.287,247.29z"/>
		<path style="opacity:0.1;fill:#FFFFFF;" d="M308.642,265.109c0,0-1.639,1.531-4.319,4.043c-3.601,3.386-9.08,8.542-14.954,14.152
			c-12.215,11.64-26.139,25.158-28.376,28.424c-4.103,5.993-19.5,65.857-19.5,65.857l-13.243-3.206c0,0,7.824-61.382,16.808-75.894
			c8.984-14.523,42.23-51.19,42.23-51.19L308.642,265.109z"/>
		<path style="opacity:0.2;" d="M304.323,269.152c-3.601,3.386-9.08,8.542-14.954,14.152c3.888-10.551,13.291-17.382,13.291-17.382
			L304.323,269.152z"/>
		<g>
			<path style="fill:#263238;" d="M298.871,249.918c0,0,8.549,62.419,12.679,83.371c4.522,22.943,24.649,65.511,24.649,65.511
				l13.045-2.744c0,0-13.715-39.342-16.749-62.377c-3.393-25.759-8.486-83.947-8.486-83.947L298.871,249.918z"/>
		</g>
		<g style="opacity:0.1;">
			<path style="fill:#FFFFFF;" d="M298.871,249.918c0,0,8.549,62.419,12.679,83.371c4.522,22.943,24.649,65.511,24.649,65.511
				l13.045-2.744c0,0-13.715-39.342-16.749-62.377c-3.393-25.759-8.486-83.947-8.486-83.947L298.871,249.918z"/>
		</g>
		<g>
			<path style="fill:#E4897B;" d="M248.168,171.888l-0.572-7.396l7.675,2.966c0,0,0.112,6.63-3.307,6.544L248.168,171.888z"/>
			<polygon style="fill:#E4897B;" points="250.582,160.224 257.83,160.68 255.271,167.458 247.596,164.492 			"/>
		</g>
		<polygon style="fill:#407BFF;" points="247.905,173.189 248.11,171.141 254.305,172.406 253.816,174.565 		"/>
		<polygon style="opacity:0.7;fill:#FFFFFF;" points="247.905,173.189 248.11,171.141 254.305,172.406 253.816,174.565 		"/>
		<g>
			<path style="fill:#407BFF;" d="M277.475,162.202h-16.046c-0.566,0-1.025,1.224-1.025,2.733c0,1.509,0.459,2.733,1.025,2.733
				h16.046c0.566,0,1.025-1.224,1.025-2.733C278.5,163.426,278.041,162.202,277.475,162.202z"/>
			<path style="opacity:0.4;fill:#FFFFFF;" d="M277.475,162.202h-16.046c-0.566,0-1.025,1.224-1.025,2.733
				c0,1.509,0.459,2.733,1.025,2.733h16.046c0.566,0,1.025-1.224,1.025-2.733C278.5,163.426,278.041,162.202,277.475,162.202z"/>
			<path style="fill:#407BFF;" d="M261.19,161.45h-19.147c-0.722,0-1.307,1.56-1.307,3.485c0,1.925,0.585,3.485,1.307,3.485h19.147
				c0.722,0,1.307-1.56,1.307-3.485C262.498,163.011,261.912,161.45,261.19,161.45z"/>
			<path style="opacity:0.2;fill:#FFFFFF;" d="M261.19,161.45h-19.147c-0.722,0-1.307,1.56-1.307,3.485
				c0,1.925,0.585,3.485,1.307,3.485h19.147c0.722,0,1.307-1.56,1.307-3.485C262.498,163.011,261.912,161.45,261.19,161.45z"/>
			<path style="fill:#407BFF;" d="M242.307,160.747h-20.008c-0.868,0-1.571,1.875-1.571,4.189c0,2.313,0.704,4.189,1.571,4.189
				h20.008c0.868,0,1.571-1.875,1.571-4.189C243.878,162.622,243.175,160.747,242.307,160.747z"/>
			<path style="opacity:0.4;fill:#FFFFFF;" d="M242.307,160.747h-20.008c-0.868,0-1.571,1.875-1.571,4.189
				c0,2.313,0.704,4.189,1.571,4.189h20.008c0.868,0,1.571-1.875,1.571-4.189C243.878,162.622,243.175,160.747,242.307,160.747z"/>
			<path style="opacity:0.2;fill:#FFFFFF;" d="M223.871,164.936c0,2.313-0.703,4.189-1.571,4.189c-0.868,0-1.571-1.875-1.571-4.189
				c0-2.314,0.704-4.189,1.571-4.189C223.167,160.747,223.871,162.622,223.871,164.936z"/>
			<path d="M222.299,168.648c-0.385,0-1.094-1.41-1.094-3.713c0-2.302,0.709-3.712,1.094-3.712c0.386,0,1.095,1.41,1.095,3.712
				C223.395,167.238,222.686,168.648,222.299,168.648z"/>
		</g>
		<path style="fill:#263238;" d="M339.919,400.275h8.873c0.298,0,0.557,0.207,0.625,0.497l1.503,6.469
			c0.156,0.671-0.365,1.306-1.053,1.294c-2.855-0.049-4.94-0.216-8.536-0.216c-2.212,0-8.881,0.23-11.936,0.23
			c-2.988,0-3.484-3.021-2.236-3.294c5.595-1.227,9.804-2.918,11.583-4.532C339.063,400.431,339.483,400.275,339.919,400.275z"/>
		<path style="fill:#263238;" d="M274.655,190.423c0,0-3.948,0.951-8.128,1.584c-2.095,0.302-4.181,0.594-6.191,0.801
			c-1.004,0.102-1.987,0.166-2.881,0.209c-0.186,0.008-0.361,0.011-0.532,0.014c-0.233-0.637-0.45-1.386-0.641-2.162
			c-0.469-1.902-0.862-3.968-1.198-6.054c-0.669-4.178-0.872-11.275-0.872-11.275l-6.438-1.574
			c-0.604,4.497-0.939,8.935-0.929,13.506c0.018,2.286,0.086,4.588,0.377,7.008c0.154,1.216,0.344,2.454,0.71,3.84
			c0.191,0.698,0.413,1.435,0.818,2.295c0.225,0.451,0.45,0.898,0.857,1.456c0.405,0.541,0.924,1.177,1.886,1.808
			c0.261,0.161,0.528,0.309,0.809,0.44c0.308,0.134,0.65,0.255,0.957,0.342l0.696,0.171c0.467,0.107,0.825,0.156,1.23,0.222
			c0.737,0.098,1.425,0.161,2.073,0.198c1.299,0.08,2.51,0.072,3.696,0.042c2.369-0.057,4.648-0.223,6.909-0.452
			c4.528-0.452,8.899-1.12,13.357-2.014L274.655,190.423z"/>
		<g>
			<path style="fill:#407BFF;" d="M316.306,188.051c-0.26,8.124,0.281,15.118,1.176,22.79c0.66,5.629,1.522,10.968,2.417,15.797
				c2.099,11.342,4.377,19.864,4.747,22.842c-5.503,0.81-26.879,3.95-38.978,5.722c-15.514-41.51-10.104-64.94-10.104-64.94
				s4.214-1.503,9.227-2.525c0.655-0.138,1.325-0.257,2.007-0.369c4.385-0.723,11.631-1.086,16.589-1.207
				c1.036-0.024,2.087-0.022,3.111-0.004C311.677,186.26,316.306,188.051,316.306,188.051z"/>
			<path style="opacity:0.7;fill:#FFFFFF;" d="M316.306,188.051c-0.26,8.124,0.281,15.118,1.176,22.79
				c0.66,5.629,1.522,10.968,2.417,15.797c2.099,11.342,4.377,19.864,4.747,22.842c-5.503,0.81-26.879,3.95-38.978,5.722
				c-15.514-41.51-10.104-64.94-10.104-64.94s4.214-1.503,9.227-2.525c0.655-0.138,1.325-0.257,2.007-0.369
				c4.385-0.723,11.631-1.086,16.589-1.207c1.036-0.024,2.087-0.022,3.111-0.004C311.677,186.26,316.306,188.051,316.306,188.051z"
				/>
		</g>
		<path style="fill:#407BFF;" d="M290.248,196.788c-0.486,3.024-2.027,10.793-1.959,18.45c0.72,1.486,1.689,5.106,2.564,6.576
			c0.64-1.676,1.751-5.128,2.511-6.818c-0.677-7.277-1.967-14.574-1.569-18.393L290.248,196.788z"/>
		<polygon style="fill:#407BFF;" points="290.709,199.09 288.8,195.689 291.223,194.151 293.364,195.043 		"/>
		<path style="fill:#E4897B;" d="M298.529,169.073c-0.177,5.409,0.361,15.188,4.618,18.128c-2.25,3.187-5.867,6.159-11.804,6.935
			c-4.548,0.595-4.393-3.214-3.668-5.118c4.733-2.011,3.888-5.932,2.2-9.856L298.529,169.073z"/>
		<g>
			<path style="fill:#FFFFFF;" d="M291.223,194.151c0,0,2.05,1.931,4.392,3.794c2.749-2.015,9.117-7.262,8.275-11.147
				c-0.554-1.088-2.169-1.563-2.169-1.563S297.915,190.064,291.223,194.151z"/>
		</g>
		<g>
			<path style="fill:#FFFFFF;" d="M291.223,194.151c0,0-2.064,2.24-3.252,4.883c-2.365-1.19-1.524-8.973-0.829-9.897
				c1.942-2.308,3.738-2.994,3.738-2.994S289.349,190.32,291.223,194.151z"/>
		</g>
		<path style="opacity:0.2;" d="M295.001,173.189l-5.123,5.968c0.403,0.928,0.754,1.878,0.977,2.82
			c2.191-0.666,4.873-3.593,4.729-5.972C295.513,174.819,295.28,173.704,295.001,173.189z"/>
		<g>
			<path style="fill:#263238;" d="M279.837,156.578c-1.116,2.717-1.122,8.492,2.937,6.96
				C286.832,162.005,281.755,151.908,279.837,156.578z"/>
			<path style="fill:#E4897B;" d="M299.631,162.06c-0.181,7.211,0.08,11.445-3.428,15.236c-5.277,5.704-14.3,2.642-16.282-4.499
				c-1.784-6.427-1.189-17.14,5.767-20.192C292.54,149.598,299.812,154.849,299.631,162.06z"/>
			<path style="fill:#263238;" d="M295.266,149.816c-0.252,0.012-0.458,0.111-0.667,0.118c0,0,0.621,14.1,3.863,17.18
				C306.746,164.773,311.005,149.063,295.266,149.816z"/>
			<path style="fill:#E4897B;" d="M302.625,167.957c-0.508,1.873-1.838,3.329-3.24,4.09c-2.108,1.144-3.717-0.619-3.596-2.893
				c0.109-2.047,1.338-5.109,3.678-5.317C301.772,163.632,303.206,165.815,302.625,167.957z"/>
			<path style="fill:#263238;" d="M282.126,164.537c0.021,0.586-0.273,1.07-0.656,1.08c-0.384,0.01-0.712-0.457-0.734-1.043
				c-0.021-0.586,0.273-1.07,0.657-1.08C281.776,163.484,282.105,163.951,282.126,164.537z"/>
			<path style="fill:#DE5753;" d="M284.247,164.773c0,0-1.25,3.292-2.676,4.912c1.058,0.888,2.808,0.398,2.808,0.398
				L284.247,164.773z"/>
			<path style="fill:#263238;" d="M287.607,172.242c-0.24,0.039-0.494,0.064-0.763,0.07c-0.095,0.003-0.176-0.072-0.179-0.167
				c-0.004-0.096,0.073-0.174,0.166-0.177c2.58-0.071,3.716-1.897,3.727-1.916c0.049-0.081,0.155-0.106,0.237-0.057
				c0.082,0.05,0.108,0.156,0.059,0.237C290.81,170.307,289.83,171.882,287.607,172.242z"/>
			<path style="fill:#263238;" d="M289.239,162.814c-0.102,0.063-0.235,0.071-0.349,0.009c-1.357-0.738-2.486-0.156-2.497-0.15
				c-0.168,0.089-0.378,0.026-0.469-0.141c-0.091-0.167-0.027-0.375,0.14-0.464c0.059-0.032,1.474-0.762,3.157,0.154
				c0.168,0.091,0.23,0.3,0.139,0.466C289.329,162.741,289.288,162.784,289.239,162.814z"/>
			<path style="fill:#263238;" d="M278.813,161.902c-0.064-0.013-0.126-0.044-0.176-0.094c-0.136-0.134-0.139-0.353-0.006-0.489
				c1.33-1.36,2.884-1.043,2.955-1.038c0.186,0.039,0.307,0.222,0.271,0.408c-0.037,0.186-0.216,0.306-0.401,0.269
				c-0.064-0.016-1.264-0.244-2.332,0.847C279.04,161.892,278.922,161.923,278.813,161.902z"/>
			
				<path style="fill:none;stroke:#263238;stroke-width:0.2991;stroke-linecap:round;stroke-linejoin:round;stroke-miterlimit:10;" d="
				M287.142,164.556c0,0,0.738-0.718,1.631-0.285"/>
			<path style="fill:#263238;" d="M297.202,159.159c0,0-3.178-0.158-4.468-3.234s-2.394-0.57-2.394-0.57s-0.424-0.929-3.198-1.481
				c-2.774-0.552-4.611,6.903-7.608,5.7c-2.997-1.204-2.127-4.219-2.127-4.219s1.314-0.643,2.792-4.715
				c1.665-4.586,9.668-6.626,16.609-3.155C303.749,150.956,297.202,159.159,297.202,159.159z"/>
		</g>
		<path style="fill:#263238;" d="M330.091,259.043l-29.106,6.065l-7.622-11.034l-4.545,10.269l-12.681-7.19l6.747-9.858
			c-12.501-30.374-8.23-56.872-8.23-56.872c5.539-2.692,12.633-3.134,12.633-3.134c-7.262,11.03,3.565,34.525,3.565,34.525
			c6.508-18.148,14.296-35.674,14.296-35.674c6.616-0.491,12.322,1.28,12.322,1.28s2.835,41.392,6.592,51.908
			C327.806,249.832,330.091,259.043,330.091,259.043z"/>
		<path style="opacity:0.1;fill:#FFFFFF;" d="M300.901,201.142l6.077,7.656c0,0-14.2,10.169-18.375,27.049l1.495-9.858
			l-11.676-16.401l5.371-6.711l-6.388-4.737c0,0,5.491-9.247,9.882-10.851c-7.262,11.03,3.565,34.525,3.565,34.525
			c6.508-18.148,14.296-35.674,14.296-35.674s5.144,3.649,7.908,11.293L300.901,201.142z"/>
		<g>
			<path style="fill:none;stroke:#263238;stroke-width:1.1963;stroke-miterlimit:10;" d="M363.166,252.205
				c0.484,1.989-3.123,4.576-8.057,5.778c-4.935,1.202-9.327,0.563-9.812-1.426c-0.484-1.989,3.123-4.576,8.057-5.778
				C358.288,249.577,362.681,250.215,363.166,252.205z"/>
			<path style="fill:#263238;" d="M376.935,249.755l7.7,31.615c0.252,1.035-0.378,2.087-1.424,2.342l-46.121,11.233
				c-1.035,0.252-2.09-0.39-2.342-1.424l-7.7-31.615c-0.255-1.046,0.39-2.09,1.424-2.342l46.121-11.233
				C375.64,248.076,376.68,248.709,376.935,249.755z"/>
			<path style="opacity:0.1;fill:#FFFFFF;" d="M376.935,249.755l7.7,31.615c0.252,1.035-0.378,2.087-1.424,2.342l-46.121,11.233
				c-1.035,0.252-2.09-0.39-2.342-1.424l-7.7-31.615c-0.255-1.046,0.39-2.09,1.424-2.342l46.121-11.233
				C375.64,248.076,376.68,248.709,376.935,249.755z"/>
			<path style="fill:#263238;" d="M331.581,260.801l7.7,31.615c0.252,1.034-0.39,2.09-1.424,2.342l-0.767,0.187
				c-1.035,0.252-2.09-0.39-2.342-1.424l-7.7-31.615c-0.255-1.046,0.39-2.09,1.424-2.342l0.767-0.187
				C330.274,259.124,331.326,259.754,331.581,260.801z"/>
			<path style="fill:#263238;" d="M329.749,259.28c0.969-0.236,1.986,0.483,2.222,1.452l3.57,14.658
				c0.201,0.824,1.032,1.33,1.856,1.129l42.368-10.319c0.824-0.201,1.33-1.032,1.129-1.856l-3.582-14.706
				c-0.251-1.03-1.289-1.661-2.318-1.41l-46.14,11.237L329.749,259.28z"/>
			<path style="opacity:0.2;fill:#FFFFFF;" d="M329.749,259.28c0.969-0.236,1.986,0.483,2.222,1.452l3.57,14.658
				c0.201,0.824,1.032,1.33,1.856,1.129l42.368-10.319c0.824-0.201,1.33-1.032,1.129-1.856l-3.582-14.706
				c-0.251-1.03-1.289-1.661-2.318-1.41l-46.14,11.237L329.749,259.28z"/>
			<path style="fill:#263238;" d="M362.727,277.819l-3.43,0.835c-0.307,0.075-0.616-0.113-0.691-0.42l-2.067-8.488l4.541-1.106
				l2.067,8.487C363.222,277.435,363.034,277.744,362.727,277.819z"/>
			<path style="fill:none;stroke:#FFFFFF;stroke-width:0.5982;stroke-miterlimit:10;" d="M362.416,275.378l-3.966,0.966
				c-0.476,0.116-0.956-0.176-1.072-0.652l-0.462-1.897c-0.116-0.476,0.176-0.956,0.652-1.072l3.966-0.966
				c0.476-0.116,0.956,0.176,1.072,0.652l0.462,1.897C363.184,274.782,362.892,275.262,362.416,275.378z"/>
		</g>
		<g>
			<path style="fill:#E4897B;" d="M349.291,242.309l-1.269,7.27l9.013-2.442c0,0-0.3-6.416-3.737-6.609L349.291,242.309z"/>
			<polygon style="fill:#E4897B;" points="350.867,254.917 358.224,252.552 357.035,247.136 348.022,249.578 			"/>
		</g>
		<polygon style="fill:#407BFF;" points="348.726,239.387 348.957,242.65 354.926,241.419 354.457,238.355 		"/>
		<polygon style="opacity:0.7;fill:#FFFFFF;" points="348.726,239.387 348.957,242.65 354.926,241.419 354.457,238.355 		"/>
		<path style="fill:#263238;" d="M317.317,187.326c5.308,2.102,10.291,4.423,15.288,7.165c2.483,1.378,4.951,2.844,7.382,4.55
			c1.218,0.852,2.432,1.772,3.645,2.808c1.207,1.061,2.415,2.197,3.615,3.845c0.3,0.444,0.59,0.831,0.878,1.393
			c0.137,0.257,0.29,0.542,0.402,0.781l0.229,0.572l0.451,1.145l0.362,1.073c0.25,0.719,0.45,1.422,0.641,2.11
			c0.202,0.697,0.392,1.387,0.561,2.069c0.725,2.737,1.286,5.451,1.828,8.159c1.051,5.427,1.859,10.839,2.427,16.335l-6.425,1.195
			c0,0-2.411-10.303-4.128-15.383c-0.841-2.545-1.735-5.068-2.629-7.517c-0.222-0.62-0.454-1.219-0.692-1.808
			c-0.23-0.602-0.474-1.184-0.715-1.731l-0.356-0.834l-0.36-0.724l-0.177-0.362c-0.043-0.063-0.065-0.07-0.092-0.11
			c-0.017-0.048-0.16-0.189-0.247-0.302c-0.444-0.52-1.258-1.231-2.145-1.892c-0.893-0.678-1.883-1.352-2.93-1.999
			c-2.104-1.287-4.354-2.528-6.668-3.699c-4.609-2.337-9.508-4.566-14.248-6.598L317.317,187.326z"/>
	</g>
</g>
<g id="Speech_bubble">
	<g>
		<g>
			<circle style="fill:#407BFF;" cx="376.244" cy="142.701" r="47.434"/>
			<circle style="opacity:0.7;fill:#FFFFFF;" cx="376.244" cy="142.701" r="47.434"/>
		</g>
		<g>
			<circle style="fill:#407BFF;" cx="327.489" cy="160.747" r="5.009"/>
			<circle style="opacity:0.7;fill:#FFFFFF;" cx="327.489" cy="160.747" r="5.009"/>
		</g>
		<g>
			<path style="fill:#407BFF;" d="M319.634,164.189c-0.109,1.583-1.48,2.777-3.062,2.669c-1.583-0.109-2.777-1.48-2.669-3.062
				c0.109-1.583,1.48-2.778,3.062-2.669C318.548,161.236,319.743,162.607,319.634,164.189z"/>
			<path style="opacity:0.7;fill:#FFFFFF;" d="M319.634,164.189c-0.109,1.583-1.48,2.777-3.062,2.669
				c-1.583-0.109-2.777-1.48-2.669-3.062c0.109-1.583,1.48-2.778,3.062-2.669C318.548,161.236,319.743,162.607,319.634,164.189z"/>
		</g>
		<g>
			<path style="fill:#407BFF;" d="M310.997,163.421c-0.054,0.791-0.74,1.389-1.531,1.334s-1.389-0.74-1.334-1.531
				c0.054-0.791,0.74-1.389,1.531-1.334S311.052,162.63,310.997,163.421z"/>
			<path style="opacity:0.7;fill:#FFFFFF;" d="M310.997,163.421c-0.054,0.791-0.74,1.389-1.531,1.334s-1.389-0.74-1.334-1.531
				c0.054-0.791,0.74-1.389,1.531-1.334S311.052,162.63,310.997,163.421z"/>
		</g>
		<g>
			<g>
				
					<ellipse transform="matrix(0.9416 -0.3368 0.3368 0.9416 -26.481 134.7309)" style="fill:#407BFF;" cx="375.146" cy="143.702" rx="18.462" ry="22.945"/>
				
					<ellipse transform="matrix(0.9416 -0.3368 0.3368 0.9416 -26.2366 135.159)" style="fill:#FFFFFF;" cx="376.512" cy="143.213" rx="14.901" ry="18.52"/>
				<path style="fill:#407BFF;" d="M388.928,138.772c2.759,7.713-0.036,15.765-6.242,17.985c-6.206,2.22-13.473-2.234-16.232-9.947
					c-2.759-7.713,0.036-15.765,6.242-17.985C378.902,126.606,386.17,131.059,388.928,138.772z"/>
				<path style="fill:#FFFFFF;" d="M386.818,139.527c2.119,5.923,0.125,12.053-4.454,13.69c-4.578,1.637-10.007-1.837-12.125-7.76
					c-2.119-5.923-0.125-12.053,4.454-13.69C379.27,130.13,384.699,133.604,386.818,139.527z"/>
				<path style="fill:#407BFF;" d="M385.257,140.449c1.511,4.224,0.206,8.553-2.915,9.669c-3.121,1.116-6.875-1.403-8.386-5.627
					c-1.511-4.224-0.206-8.553,2.915-9.669C379.991,133.706,383.746,136.225,385.257,140.449z"/>
				<path style="fill:#FFFFFF;" d="M384.165,140.839c1.091,3.051,0.262,6.137-1.852,6.893c-2.114,0.756-4.712-1.104-5.803-4.155
					c-1.091-3.05-0.262-6.136,1.852-6.893C380.475,135.929,383.074,137.789,384.165,140.839z"/>
			</g>
			<polygon style="fill:#407BFF;" points="409.352,127.056 403.671,129.088 402.578,134.254 406.699,137.555 412.38,135.523 
				408.165,132.256 			"/>
			
				<line style="fill:none;stroke:#263238;stroke-width:2;stroke-linecap:round;stroke-linejoin:round;stroke-miterlimit:10;" x1="381.221" y1="141.892" x2="409.034" y2="131.945"/>
		</g>
	</g>
</g>
</svg>
